<svg width="796" height="836" viewBox="0 0 796 836" fill="none" xmlns="http://www.w3.org/2000/svg">
<path d="M282 444.962V347.962L332.5 404.462L357.5 413.962H378.5L420 397.462L462 347.962L471.5 413.962L493.5 428.962L471.5 490.462L445 529.962L424.5 537.962L416 566.462L394 590.462L349.5 603.462L295 579L332.5 547.962L315.5 490.462L282 444.962Z" fill="#E7CABC"/>
<path d="M282 444.962V347.962L332.5 404.462L357.5 413.962H378.5L420 397.462L462 347.962L471.5 413.962L493.5 428.962L471.5 490.462L445 529.962L424.5 537.962L416 566.462L394 590.462L349.5 603.462L295 579L332.5 547.962L315.5 490.462L282 444.962Z" fill="url(#paint0_radial)"/>
<path d="M283 444.462V412.462L269 420.462L266 441.962L233 455.462L216.5 464.462C216.5 464.462 123.657 489.429 80.5 529.462C58.0752 550.264 39.5 572.462 32 590.962C24.5 609.462 19.5466 646.163 14 681.962C4.87833 740.836 1 833.962 1 833.962H783.5C783.5 833.962 787.565 761.256 783.5 714.962C779.599 670.544 779.392 644.311 764 602.462C750.815 566.613 743.751 543.728 716.5 516.962C686.908 487.897 659.988 484.927 621.5 469.462C582.07 453.619 517.5 437.462 517.5 437.462L509 427.962L494.5 399.962L467 389.962L473.5 416.462L494.5 427.962L445 529.462L426 535.962L416 567.962L409.5 590.962L352 676.462L312 573.462L333.5 549.462L316.5 490.462L283 444.462Z" fill="#4D3E2B"/>
<path d="M283 444.462V412.462L269 420.462L266 441.962L233 455.462L216.5 464.462C216.5 464.462 123.657 489.429 80.5 529.462C58.0752 550.264 39.5 572.462 32 590.962C24.5 609.462 19.5466 646.163 14 681.962C4.87833 740.836 1 833.962 1 833.962H783.5C783.5 833.962 787.565 761.256 783.5 714.962C779.599 670.544 779.392 644.311 764 602.462C750.815 566.613 743.751 543.728 716.5 516.962C686.908 487.897 659.988 484.927 621.5 469.462C582.07 453.619 517.5 437.462 517.5 437.462L509 427.962L494.5 399.962L467 389.962L473.5 416.462L494.5 427.962L445 529.462L426 535.962L416 567.962L409.5 590.962L352 676.462L312 573.462L333.5 549.462L316.5 490.462L283 444.462Z" fill="url(#paint1_radial)"/>
<path d="M283 444.462V412.462L269 420.462L266 441.962L233 455.462L216.5 464.462C216.5 464.462 123.657 489.429 80.5 529.462C58.0752 550.264 39.5 572.462 32 590.962C24.5 609.462 19.5466 646.163 14 681.962C4.87833 740.836 1 833.962 1 833.962H783.5C783.5 833.962 787.565 761.256 783.5 714.962C779.599 670.544 779.392 644.311 764 602.462C750.815 566.613 743.751 543.728 716.5 516.962C686.908 487.897 659.988 484.927 621.5 469.462C582.07 453.619 517.5 437.462 517.5 437.462L509 427.962L494.5 399.962L467 389.962L473.5 416.462L494.5 427.962L445 529.462L426 535.962L416 567.962L409.5 590.962L352 676.462L312 573.462L333.5 549.462L316.5 490.462L283 444.462Z" stroke="#5D4D36"/>
<path d="M352.5 674.962L314 579.462C314 579.462 333.926 594.549 349 596.462C365.96 598.615 376.494 594.153 391.5 585.962C402.341 580.045 416 565.962 416 565.962L409.5 593.962L352.5 674.962Z" fill="black" stroke="black"/>
<path d="M460.5 529.962L464.5 538.462L455.5 529.962L460.5 506.962L455.5 500.962L464.5 491.462L469.5 500.962V512.462L460.5 529.962Z" fill="#594930" fill-opacity="0.79"/>
<path d="M359 834.962C359 834.962 359.621 813.957 362.5 796.462C365.218 779.949 367.775 755.196 368 738.462C368.251 719.79 366.27 719.056 368 700.462C371.319 664.789 393.726 650.778 412 619.962C431.31 587.397 464.5 538.462 464.5 538.462M464.5 538.462L460.5 529.962L469.5 512.462V500.962L464.5 491.462L455.5 500.962L460.5 506.962L455.5 529.962L464.5 538.462Z" stroke="black"/>
<path d="M352 672.962C352 672.962 337.4 699.306 334.5 714.962C332.082 728.018 335.097 735.698 334.5 748.962C332.997 782.346 321 833.462 321 833.462" stroke="black"/>
<path d="M466.5 540.962L477.5 549.462L483.5 527.962L502 488.962L516.5 446.962V435.462" stroke="black"/>
<path d="M265 441.462L257.5 461.462L273 530.962V541.962V551.462L297 527.462V514.462L304.5 498.462L312 494.462L322.5 510.462L333.5 546.962" stroke="black"/>
<path d="M477 527.962C477 531.552 477.038 534.462 474 534.462C471 532.462 469.5 531.962 467.5 527.962C467.5 524.372 467.962 521.962 471 521.962C474.038 521.962 477 524.372 477 527.962Z" fill="#C4C4C4"/>
<path d="M361.5 701.962C361.5 705.552 356.038 708.962 353 708.962C350 706.962 348.5 707.962 346.5 703.962C346.5 700.372 349.962 691.462 353 691.462C360.278 691.462 361.5 698.372 361.5 701.962Z" fill="#C4C4C4"/>
<path d="M350.5 835.962C347.5 835.962 340 835.962 340 835.962C340 835.962 336 835.962 334 835.962C332 830.462 337.004 825.962 340 825.462C349 823.962 350.5 832.372 350.5 835.962Z" fill="#C4C4C4"/>
<path d="M316.5 518.962C316.5 524.462 312.038 526.008 309 526.008C305.5 525.462 304.5 523.962 302.5 519.962C302.5 516.372 303.326 511.902 306 510.462C312.5 506.962 316.5 513.462 316.5 518.962Z" fill="#C4C4C4"/>
<path d="M286 528.462C286 533.962 281.538 535.508 278.5 535.508C275.5 532.962 278.5 536.962 276.5 532.962C276.5 529.372 276.5 528.462 279 525.462C281.863 522.026 286 522.962 286 528.462Z" fill="#C4C4C4"/>
<path d="M312 577.962C312 577.962 314.038 584.962 311 584.962C308 582.416 307 581.962 305 577.962C305 574.372 304 573.962 306 569.962C308 565.962 312 577.962 312 577.962Z" fill="#C4C4C4"/>
<path d="M263.5 231.962C263.5 231.962 263.879 164.657 268 120.462C268.893 110.886 268.75 97.9622 272 93.9622C276.062 88.9622 289.08 85.2203 302.5 80.4622C328.553 71.2244 346.522 86.4465 372.5 77C389 71 400 62.5001 414.5 62.5C429 62.4999 481 115.5 481 129.962V252.962C481 252.962 470.5 319 461.5 349.462C454.437 373.369 420 397.962 420 397.962C420 397.962 394.877 412.483 377 414.462C369.237 415.322 364.719 415.652 357 414.462C345.568 412.7 329.5 403.462 329.5 403.462C329.5 403.462 280 355.538 274.5 344C257.238 307.789 263.5 231.962 263.5 231.962Z" fill="#EDC3B1"/>
<path d="M263.5 231.962C263.5 231.962 263.879 164.657 268 120.462C268.893 110.886 268.75 97.9622 272 93.9622C276.062 88.9622 289.08 85.2203 302.5 80.4622C328.553 71.2244 346.522 86.4465 372.5 77C389 71 400 62.5001 414.5 62.5C429 62.4999 481 115.5 481 129.962V252.962C481 252.962 470.5 319 461.5 349.462C454.437 373.369 420 397.962 420 397.962C420 397.962 394.877 412.483 377 414.462C369.237 415.322 364.719 415.652 357 414.462C345.568 412.7 329.5 403.462 329.5 403.462C329.5 403.462 280 355.538 274.5 344C257.238 307.789 263.5 231.962 263.5 231.962Z" fill="url(#paint2_linear)" fill-opacity="0.6"/>
<path d="M252 212.962C254.866 213.565 264 238.462 264 238.462C264 238.462 266.5 99.882 272 95.9621C283.173 87.9994 287.31 84.3245 301 82C309.848 80.4975 321.759 96.3711 341.5 86.9621C364.5 76 421.5 70.453 428.5 73C439.5 77.0025 473 112.962 480 130.462C481.857 135.104 482 246.462 482 246.462L492.5 225.962C492.5 225.962 508.237 174.866 506.5 141.462C505.543 123.061 486.281 88.4762 484.5 86.9621C464.5 69.9621 464.5 45.4621 464.5 45.4621L447 50.4621C447 50.4621 453.444 39.9768 447 36.4621C440.556 32.9474 443.5 35.4621 441.5 32.4621C439.5 29.4621 436.5 15.4621 436.5 15.4621L428.5 21.4621C428.5 21.4621 410.163 7.46214 404.5 7.46214H390C384.337 7.46214 384.411 2.45729 380 0.962141C374.267 -0.98093 370.539 0.552065 364.5 0.962141C352.159 1.80013 345.509 10.4269 333.5 7.46214C327.819 6.05967 325.31 8.15513 319.5 7.46214C305.099 5.74447 302.5 26.4621 294.5 27.9621C290.433 28.7246 289.499 25.7348 284.5 24.4621C268.435 20.3724 252 50.4621 252 50.4621L244.5 211.462C244.5 211.462 249.134 212.359 252 212.962Z" fill="#251C1F"/>
<path d="M252 212.962C254.866 213.565 264 238.462 264 238.462C264 238.462 266.5 99.882 272 95.9621C283.173 87.9994 287.31 84.3245 301 82C309.848 80.4975 321.759 96.3711 341.5 86.9621C364.5 76 421.5 70.453 428.5 73C439.5 77.0025 473 112.962 480 130.462C481.857 135.104 482 246.462 482 246.462L492.5 225.962C492.5 225.962 508.237 174.866 506.5 141.462C505.543 123.061 486.281 88.4762 484.5 86.9621C464.5 69.9621 464.5 45.4621 464.5 45.4621L447 50.4621C447 50.4621 453.444 39.9768 447 36.4621C440.556 32.9474 443.5 35.4621 441.5 32.4621C439.5 29.4621 436.5 15.4621 436.5 15.4621L428.5 21.4621C428.5 21.4621 410.163 7.46214 404.5 7.46214H390C384.337 7.46214 384.411 2.45729 380 0.962141C374.267 -0.98093 370.539 0.552065 364.5 0.962141C352.159 1.80013 345.509 10.4269 333.5 7.46214C327.819 6.05967 325.31 8.15513 319.5 7.46214C305.099 5.74447 302.5 26.4621 294.5 27.9621C290.433 28.7246 289.499 25.7348 284.5 24.4621C268.435 20.3724 252 50.4621 252 50.4621L244.5 211.462C244.5 211.462 249.134 212.359 252 212.962Z" fill="url(#paint3_radial)" fill-opacity="0.3"/>
<path d="M312 39.5C298.015 39.5 339.723 84.4295 345.5 83.5001C438.5 68.5379 425.5 54.5 479 124C482.05 127.962 481 247.5 481 247.5L493 222.962C493 222.962 494.737 170.904 493 137.5C492.043 119.099 480.5 101 468.5 83.9622L454 59.4622C447.556 55.9475 433 49.4622 431 46.4622C429 43.4622 422 42.0001 422 42.0001L418 35.4622C418 35.4622 399.663 21.4622 394 21.4622H379.5C373.837 21.4622 373.911 16.4573 369.5 14.9622C363.767 13.0191 339.039 39.0899 333 39.5C320.659 40.338 322.5 39.5 312 39.5Z" fill="#643B14" fill-opacity="0.2"/>
<path d="M312 39.5C298.015 39.5 339.723 84.4295 345.5 83.5001C438.5 68.5379 425.5 54.5 479 124C482.05 127.962 481 247.5 481 247.5L493 222.962C493 222.962 494.737 170.904 493 137.5C492.043 119.099 480.5 101 468.5 83.9622L454 59.4622C447.556 55.9475 433 49.4622 431 46.4622C429 43.4622 422 42.0001 422 42.0001L418 35.4622C418 35.4622 399.663 21.4622 394 21.4622H379.5C373.837 21.4622 373.911 16.4573 369.5 14.9622C363.767 13.0191 339.039 39.0899 333 39.5C320.659 40.338 322.5 39.5 312 39.5Z" fill="url(#paint4_radial)" fill-opacity="0.1"/>
<path d="M412 162.962C402.341 161.151 395 177.962 395 177.962C395 177.962 405.314 176.032 412 175.462C424.652 174.385 444.5 176.462 444.5 176.462C444.5 176.462 447.556 177.348 449.5 177.962C455.449 179.843 464.5 183.462 464.5 183.462C464.5 183.462 453.804 165.962 444 165.962C428.5 165.962 428 165.962 412 162.962Z" fill="#422826"/>
<path d="M349 273.962C346 274.962 347 273.462 344 274.462C340.686 274.462 339.5 271.567 339.5 270.462C339.5 269.358 341.186 269.462 344.5 269.462C347.814 269.462 347.5 271.962 349 273.962Z" fill="url(#paint5_linear)"/>
<path d="M252.387 210.462L263.5 236.462L267 297.462H263.708L252.387 293.462L246.726 272.462L240.5 262.462V246.462C240.5 246.462 236 227.962 240.5 208.962C241.578 204.409 252.387 210.462 252.387 210.462Z" fill="#854435"/>
<path d="M252.387 210.462L263.5 236.462L267 297.462H263.708L252.387 293.462L246.726 272.462L240.5 262.462V246.462C240.5 246.462 236 227.962 240.5 208.962C241.578 204.409 252.387 210.462 252.387 210.462Z" fill="url(#paint6_linear)" fill-opacity="0.3"/>
<path d="M491.5 228.962L481.5 247.462L470.5 310.462C470.5 310.462 471.773 315.888 474.5 317.462C479.199 320.175 486.5 310.462 486.5 310.462C486.5 310.462 493 281.538 500 263C501.975 257.769 496 245.5 496 245.5C496 245.5 503.565 231.978 497 228.962C493.984 227.576 491.5 228.962 491.5 228.962Z" fill="#F4C4BA" stroke="#F5B4A2"/>
<path d="M340 328.462C328.707 322.165 317 304.962 317 304.962L348.5 302.462C348.5 302.462 357.583 304.452 363.5 304.962C369.92 305.515 380 304.962 380 304.962C380 304.962 390.83 311.068 398.5 312.462C405.224 313.684 416 312.462 416 312.462C416 312.462 404.555 326.316 394.5 330.962C384.796 335.446 378.188 335.288 367.5 335.462C355.655 335.655 350.347 334.232 340 328.462Z" fill="#D58A88" stroke="#EDB39C"/>
<path d="M335 314.462C327.349 311.738 316.5 304.962 316.5 304.962C316.5 304.962 331.791 309.595 342 311.462C347.842 312.531 351.133 312.543 357 313.462C360.901 314.073 363.57 314.072 367.5 314.462C375.272 315.234 387.19 315.962 395 315.962C405.935 315.962 415.5 312.962 415.5 312.962C415.5 312.962 405.508 317.196 399 318.462C392.413 319.744 382 320.962 382 320.962C382 320.962 373.146 321.396 367.5 320.962C361.387 320.492 358.017 319.642 352 318.462C345.307 317.15 341.425 316.75 335 314.462Z" fill="white"/>
<path d="M335 314.462C327.349 311.738 316.5 304.962 316.5 304.962C316.5 304.962 331.791 309.595 342 311.462C347.842 312.531 351.133 312.543 357 313.462C360.901 314.073 363.57 314.072 367.5 314.462C375.272 315.234 387.19 315.962 395 315.962C405.935 315.962 415.5 312.962 415.5 312.962C415.5 312.962 405.508 317.196 399 318.462C392.413 319.744 382 320.962 382 320.962C382 320.962 373.146 321.396 367.5 320.962C361.387 320.492 358.017 319.642 352 318.462C345.307 317.15 341.425 316.75 335 314.462Z" fill="url(#paint7_linear)"/>
<path d="M335 314.462C327.349 311.738 316.5 304.962 316.5 304.962C316.5 304.962 331.791 309.595 342 311.462C347.842 312.531 351.133 312.543 357 313.462C360.901 314.073 363.57 314.072 367.5 314.462C375.272 315.234 387.19 315.962 395 315.962C405.935 315.962 415.5 312.962 415.5 312.962C415.5 312.962 405.508 317.196 399 318.462C392.413 319.744 382 320.962 382 320.962C382 320.962 373.146 321.396 367.5 320.962C361.387 320.492 358.017 319.642 352 318.462C345.307 317.15 341.425 316.75 335 314.462Z" fill="url(#paint8_linear)"/>
<path d="M335 314.462C327.349 311.738 316.5 304.962 316.5 304.962C316.5 304.962 331.791 309.595 342 311.462C347.842 312.531 351.133 312.543 357 313.462C360.901 314.073 363.57 314.072 367.5 314.462C375.272 315.234 387.19 315.962 395 315.962C405.935 315.962 415.5 312.962 415.5 312.962C415.5 312.962 405.508 317.196 399 318.462C392.413 319.744 382 320.962 382 320.962C382 320.962 373.146 321.396 367.5 320.962C361.387 320.492 358.017 319.642 352 318.462C345.307 317.15 341.425 316.75 335 314.462Z" stroke="white" stroke-width="0.2"/>
<path d="M396 261.5C392.526 257.53 386.5 253 386.5 253C386.5 253 384.121 246.719 381.5 242.5C375.758 233.256 377 225.882 377 215C377 207.5 375.054 201.654 380 196C384.394 190.978 395.5 188.5 395.5 188.5C395.5 188.5 401.39 189.184 404.5 187.5C406.325 186.512 410.035 182.023 410.5 180C411.289 176.569 400 181 400 181C399.2 179.8 398 178 395.5 178.5C393.667 178.5 391.7 180.8 388.5 180C385.3 179.2 379 180 375.5 180L357.5 181L340.5 177.5V184L354.5 194L356 213.5C356 213.5 356.25 232.227 350 241.5C346.967 246 340.5 249.5 340.5 249.5C340.5 249.5 333.424 255.306 332.5 260.5C331.803 264.421 334 275.962 340.5 270.462C342.408 268.847 339.5 269.5 344.5 269.5C347.861 269.5 350 275 354.5 279C356.5 280.778 363.5 281 370 281C373.325 281 373.496 278.511 375.5 277C377.965 275.141 380 272.5 380 272.5C380 272.5 385 268 388.5 270.462C399.079 277.904 399.5 265.5 396 261.5Z" fill="url(#paint9_linear)"/>
<path d="M390 273.462C386 275.462 389.814 275.462 386.5 275.462C383.186 275.462 379.5 274.567 379.5 273.462C379.5 272.358 383.186 269.462 386.5 269.462C389.814 269.462 388.5 270.962 390 273.462Z" fill="url(#paint10_linear)"/>
<path d="M328.5 173.962C338.135 175.037 353 177.962 353 177.962C353 177.962 347.75 170.301 343 166.962C337.541 163.125 333.602 161.933 327 160.962C318.829 159.761 314.015 161.469 306 163.462C299.767 165.012 295.681 165.166 290.5 168.962C286.707 171.741 282.5 177.962 282.5 177.962C282.5 177.962 287.408 178.411 290.5 177.962C295.955 177.171 298.14 173.748 303.5 172.462C313.011 170.181 318.78 172.878 328.5 173.962Z" fill="#422826"/>
<path d="M328 194.462C335.143 195.19 345 201.462 345 201.462C345 201.462 337.073 205.97 331.5 207.462C328.058 208.384 326.062 209.047 322.5 208.962C317.62 208.847 314.766 207.835 310.5 205.462C308.179 204.171 305 201.462 305 201.462L314.5 195.962C314.5 195.962 322.723 193.924 328 194.462Z" fill="#F5F0ED"/>
<path d="M412 201.462C407.481 202.835 402 207.462 402 207.462L414.5 212.962L418.75 213.962L423 214.962H429.5C429.5 214.962 438.5 213.962 442.5 212.5C443.417 212.165 441.5 210.462 441.5 210.462L432.5 203.462C432.5 203.462 427.429 200.902 423.5 200.462C419.384 200.002 416.127 200.208 412 201.462Z" fill="#F5F0ED"/>
<path d="M328 194.462C335.143 195.19 345 201.462 345 201.462C345 201.462 337.073 205.97 331.5 207.462C328.058 208.384 326.062 209.047 322.5 208.962C317.62 208.847 314.766 207.835 310.5 205.462C308.179 204.171 305 201.462 305 201.462L314.5 195.962C314.5 195.962 322.723 193.924 328 194.462Z" stroke="black" stroke-width="0.1"/>
<path d="M412 201.462C407.481 202.835 402 207.462 402 207.462L414.5 212.962L418.75 213.962L423 214.962H429.5C429.5 214.962 438.5 213.962 442.5 212.5C443.417 212.165 441.5 210.462 441.5 210.462L432.5 203.462C432.5 203.462 427.429 200.902 423.5 200.462C419.384 200.002 416.127 200.208 412 201.462Z" stroke="black" stroke-width="0.1"/>
<path d="M332.5 200.462C332.5 205.433 328.747 208.962 323.5 208.962C318.253 208.962 313.5 205.433 313.5 200.462C313 193.962 318.753 193.962 324 193.962C330.5 193.962 332.5 195.492 332.5 200.462Z" fill="#647276"/>
<path d="M431 205.962C431 210.933 426.747 214.962 421.5 214.962C416.253 214.962 412 210.433 412 205.462C412 198.462 419 200.462 422.5 200.462C425.5 201.462 431 200.992 431 205.962Z" fill="#647276"/>
<circle cx="322.5" cy="200.462" r="3" fill="#1E1E1E"/>
<circle cx="421.5" cy="206.462" r="3" fill="black"/>
<path d="M347 264C347.199 257.888 349.943 254.215 354 249C357.5 244.5 357.866 231.234 362 231.5C367.361 231.846 363 248 378.5 252C385.724 253.864 381 268 381 268C381 268 378.383 271.168 376.5 273C374.314 275.127 373.263 276.708 370.5 278C365.901 280.151 361.778 280.734 357.5 278C354.801 276.276 351.342 275.908 350 273C348.264 269.239 346.866 268.14 347 264Z" fill="url(#paint11_linear)"/>
<path d="M68.5001 582.963L77.0001 534.962L65.0001 546.462C65.0001 546.462 64.0403 549.497 63.5001 551.462C60.214 563.419 60.3263 570.59 59.5001 582.963C58.5763 596.795 57.938 608.114 59.5001 618.462L63.5001 644.962L68.5001 670.462C68.5001 670.462 69.6446 682.732 72.5001 689.962C73.9435 693.617 77.0001 698.962 77.0001 698.962V675.462C77.0001 665.114 78.2776 659.232 77.0001 648.962C75.4737 636.692 70.2709 630.7 68.5001 618.462C66.5146 604.742 68.5001 582.963 68.5001 582.963Z" stroke="black" stroke-width="0.5"/>
<path d="M75 746.462L77.5 705.962L76.5 701.462L72.5 698.462V726.962C72.5 729.038 70.0744 729.186 69 730.962C66.4553 735.169 68 738.962 67.5 743.462L72.5 775.462L80.5 810.962L89 833.962V816.962L75 772.462V746.462Z" fill="black" fill-opacity="0.7"/>
<path d="M77.9991 705.993L78.0034 705.923L77.9881 705.854L76.9881 701.354L76.948 701.173L76.8 701.062L72.8 698.062L72 697.462V698.462V726.962C72 727.74 71.58 728.165 70.8661 728.665C70.7572 728.741 70.6398 728.82 70.517 728.902C69.8739 729.331 69.0824 729.86 68.5722 730.703C67.2341 732.915 66.9775 735.019 66.9832 737.104C66.9851 737.782 67.0153 738.474 67.0454 739.163C67.0608 739.517 67.0762 739.869 67.0878 740.219C67.1222 741.264 67.1242 742.317 67.0031 743.407L66.9957 743.473L67.006 743.539L72.006 775.539L72.0086 775.556L72.0123 775.572L80.0123 811.072L80.0195 811.104L80.031 811.135L88.531 834.135L89.5 833.962V816.962V816.885L89.477 816.812L75.5 772.385V746.478L77.9991 705.993Z" stroke="black" stroke-opacity="0.7"/>
<path d="M721.5 521.962C721.5 521.962 709.695 579.083 694 613.462C673 659.462 657.5 732.462 657.5 732.462L650 730.462C650 730.462 651.341 701.554 655 683.462C660.546 656.04 668.25 641.494 679 615.962C703 558.962 711.5 510.462 711.5 510.462" stroke="black" stroke-opacity="0.5"/>
<path d="M648 786.462C648.189 804.672 650.5 832.962 650.5 832.962H653.5C653.5 832.962 653.873 810.35 655.5 789.462C657.127 768.574 659 734.462 659 734.462L649 731.462C649 731.462 647.78 765.331 648 786.462Z" fill="black" fill-opacity="0.5"/>
<path d="M427 306.5C427 306.5 427.472 299.727 425 296C422.799 292.681 421.096 287.894 417 289" stroke="#97766C" stroke-opacity="0.5" stroke-width="0.5"/>
<path d="M314 282.5C314 282.5 307 287.5 305 291.5C303.219 295.062 299.5 301.5 302.5 304.5" stroke="#97766C" stroke-opacity="0.5" stroke-width="0.5"/>
<path d="M496 251.5C497.538 256.804 494 265.5 494 265.5L490 252.5L488.5 242.5C488.5 242.5 490.474 239.298 492 240C493.596 240.735 491.678 242.772 492 244.5C492.577 247.595 495.123 248.476 496 251.5Z" fill="#E99888"/>
<path d="M251.5 226.5C253.038 221.196 244 218.5 244 218.5V232V241C244 241 245.974 244.202 247.5 243.5C249.096 242.765 247.178 240.728 247.5 239C248.077 235.905 250.623 229.524 251.5 226.5Z" fill="#A06150"/>
<path d="M483 269.5C482.013 266.121 480 261 480 261C480 261 483.036 263.452 485 265C486.749 266.378 488.265 267.648 489.5 269.5C490.735 271.352 491 274 491 274C491 274 491.05 278.787 489.5 281.5C488.103 283.945 487.473 283.652 485 285C482.687 286.261 481.304 285.932 480.596 285.517C481.283 286.24 482.07 287.62 480 289C478.547 289.969 476 291 476 291L480 285C480 285 482.217 280.948 483 278C483.875 274.704 483.957 272.773 483 269.5Z" fill="#E09889"/>
<path d="M254 252.5C254.988 249.121 257 244 257 244C257 244 251.964 244.452 250 246C248.251 247.378 247.235 250.648 246 252.5C244.765 254.352 246 257 246 257C246 257 245.95 261.787 247.5 264.5C248.897 266.945 249.528 266.652 252 268C254.313 269.261 255.697 268.932 256.404 268.517C255.717 269.24 254.93 270.62 257 272C258.453 272.969 261 274 261 274L257 268C257 268 254.783 263.948 254 261C253.125 257.704 253.044 255.773 254 252.5Z" fill="#A06150"/>
<path d="M358.882 341.685C358.882 341.685 391.881 342.56 384.382 346.685C374.382 352.185 352.696 352.954 341.382 348.685C314.881 338.685 358.882 341.685 358.882 341.685Z" fill="#E09889" fill-opacity="0.15"/>
<path d="M355 291C356.225 280.765 355 278.5 355 278.5C358.948 281.238 376 277 374.5 282C373 287 371 292.5 378 303.5C380.2 306.958 342.528 305.788 348 301C349.714 299.5 354.521 295 355 291Z" fill="#EBB09B" fill-opacity="0.2"/>
<defs>
<radialGradient id="paint0_radial" cx="0" cy="0" r="1" gradientUnits="userSpaceOnUse" gradientTransform="translate(371.5 330.962) rotate(83.9085) scale(254.437 215.685)">
<stop stop-color="#9F5444"/>
<stop offset="0.601909" stop-color="white" stop-opacity="0"/>
</radialGradient>
<radialGradient id="paint1_radial" cx="0" cy="0" r="1" gradientUnits="userSpaceOnUse" gradientTransform="translate(821.5 603.962) rotate(159.834) scale(507.619 894.622)">
<stop stop-color="white" stop-opacity="0"/>
<stop offset="0.0001" stop-color="#A38559"/>
<stop offset="1" stop-color="#5D4D36"/>
</radialGradient>
<linearGradient id="paint2_linear" x1="167" y1="68.4622" x2="462" y2="302.962" gradientUnits="userSpaceOnUse">
<stop stop-color="#E3BCB0"/>
<stop offset="1" stop-color="#FBE2D7"/>
</linearGradient>
<radialGradient id="paint3_radial" cx="0" cy="0" r="1" gradientUnits="userSpaceOnUse" gradientTransform="translate(450 13.9621) rotate(-29.0238) scale(271.037 289.254)">
<stop offset="0.373765" stop-color="#854435"/>
<stop offset="0.677083" stop-color="#854435"/>
<stop offset="1"/>
</radialGradient>
<radialGradient id="paint4_radial" cx="0" cy="0" r="1" gradientUnits="userSpaceOnUse" gradientTransform="translate(424.5 129) rotate(-66.541) scale(115.551 123.317)">
<stop offset="0.373765" stop-color="#854435"/>
<stop offset="0.677083" stop-color="#854435"/>
<stop offset="1" stop-color="#422826"/>
</radialGradient>
<linearGradient id="paint5_linear" x1="341" y1="269.462" x2="343" y2="276.962" gradientUnits="userSpaceOnUse">
<stop/>
<stop offset="1" stop-color="#C4C4C4" stop-opacity="0"/>
</linearGradient>
<linearGradient id="paint6_linear" x1="323" y1="253.462" x2="240.5" y2="283.962" gradientUnits="userSpaceOnUse">
<stop stop-color="white"/>
<stop offset="1" stop-color="#F2C3AF"/>
</linearGradient>
<linearGradient id="paint7_linear" x1="309" y1="299.962" x2="350" y2="316.462" gradientUnits="userSpaceOnUse">
<stop stop-color="#626262"/>
<stop offset="1" stop-color="white" stop-opacity="0"/>
</linearGradient>
<linearGradient id="paint8_linear" x1="436" y1="307.962" x2="385" y2="317.462" gradientUnits="userSpaceOnUse">
<stop offset="0.0462869" stop-color="white"/>
<stop offset="1" stop-opacity="0"/>
</linearGradient>
<linearGradient id="paint9_linear" x1="370.59" y1="177.5" x2="370.59" y2="281" gradientUnits="userSpaceOnUse">
<stop stop-color="#F1CEC0"/>
<stop offset="1" stop-color="#F3C3B0"/>
</linearGradient>
<linearGradient id="paint10_linear" x1="385.5" y1="269.462" x2="384.5" y2="275.462" gradientUnits="userSpaceOnUse">
<stop/>
<stop offset="1" stop-color="#C4C4C4" stop-opacity="0"/>
</linearGradient>
<linearGradient id="paint11_linear" x1="358.5" y1="309" x2="366" y2="242.5" gradientUnits="userSpaceOnUse">
<stop stop-color="#D89B83" stop-opacity="0.7"/>
<stop offset="0.935898" stop-color="#EFC9BA"/>
</linearGradient>
</defs>
</svg>
