<svg width="394" height="400" viewBox="0 0 394 400" fill="none" xmlns="http://www.w3.org/2000/svg">
<path d="M198.659 155.857C199.081 154.857 204.137 132.857 204.137 132.357L236.158 137.357L242.899 121.357L244.585 126.857L242.899 135.857L252.59 134.857C237.001 161.19 205.822 213.757 205.822 213.357C205.822 212.957 185.598 216.19 175.486 217.857L178.857 208.857L188.126 189.857L186.862 186.857L196.131 159.357C196.833 158.523 198.322 156.657 198.659 155.857Z" fill="#C4C4C4"/>
<path d="M216.777 205.857C214.53 206.023 207.844 205.857 207.507 205.857L234.894 161.357L235.315 162.357L236.579 164.857L234.473 166.857L235.315 167.857L236.579 168.857L238.265 171.357L238.265 173.857L234.051 178.357L234.894 178.357L237.422 178.857L238.686 181.357L238.686 184.357C237.141 185.69 233.799 188.357 232.787 188.357C231.776 188.357 231.804 189.357 231.945 189.857L228.574 197.857C226.467 199.69 222.17 203.357 221.833 203.357C221.496 203.357 218.322 205.023 216.777 205.857Z" fill="#F4CFBF"/>
<path d="M216.777 205.857C214.53 206.023 207.844 205.857 207.507 205.857L234.894 161.357L235.315 162.357L236.579 164.857L234.473 166.857L235.315 167.857L236.579 168.857L238.265 171.357L238.265 173.857L234.051 178.357L234.894 178.357L237.422 178.857L238.686 181.357L238.686 184.357C237.141 185.69 233.799 188.357 232.787 188.357C231.776 188.357 231.804 189.357 231.945 189.857L228.574 197.857C226.467 199.69 222.17 203.357 221.833 203.357C221.496 203.357 218.322 205.023 216.777 205.857Z" fill="url(#paint0_radial)"/>
<path d="M70.294 97.0556L54.5463 117.932L60.5898 121.908L73.5328 132.501L76.058 145.593L84.0338 150.262L106.47 131.246L119.628 132.108L123.213 131.348L126.743 128.994L127.1 126.631L126.785 123.826L129.362 122.403L131.041 123.508L131.994 122.576L132.611 121.423L131.831 117.792L137.17 117.147L138.837 111.489L139.844 112.151L145.649 112.332L147.089 109.642L147.498 92.7641L148.938 90.074L152.023 84.3096L154.459 75.5193L155.161 64.03L163.543 62.789L168.274 53.9502L165.035 45.5838L156.478 35.2781L151.16 33.3388L143.525 34.0321L137.049 33.4091L131.774 26.3016L122.893 22.5379L111.468 24.3751L95.6692 32.688L88.2307 42.3439L79.7967 58.1001L76.0302 72.7697L76.7135 79.9743L72.9682 92.0598L70.294 97.0556Z" fill="#F4CFBF"/>
<path d="M70.294 97.0556L54.5463 117.932L60.5898 121.908L73.5328 132.501L76.058 145.593L84.0338 150.262L106.47 131.246L119.628 132.108L123.213 131.348L126.743 128.994L127.1 126.631L126.785 123.826L129.362 122.403L131.041 123.508L131.994 122.576L132.611 121.423L131.831 117.792L137.17 117.147L138.837 111.489L139.844 112.151L145.649 112.332L147.089 109.642L147.498 92.7641L148.938 90.074L152.023 84.3096L154.459 75.5193L155.161 64.03L163.543 62.789L168.274 53.9502L165.035 45.5838L156.478 35.2781L151.16 33.3388L143.525 34.0321L137.049 33.4091L131.774 26.3016L122.893 22.5379L111.468 24.3751L95.6692 32.688L88.2307 42.3439L79.7967 58.1001L76.0302 72.7697L76.7135 79.9743L72.9682 92.0598L70.294 97.0556Z" fill="url(#paint1_linear)"/>
<path d="M81.0462 89.6338L72.4974 90.0296L74.4171 79.4447C73.9394 78.6007 73.068 76.7558 73.4036 76.1289C73.7392 75.5019 74.037 70.8939 74.144 68.6683L76.4283 57.4551L83.7115 42.1125L92.276 31.3217C94.585 30.1915 99.3708 27.6175 100.042 26.3636C100.713 25.1097 107.522 22.8072 110.843 21.8127L120.176 20.0048L129.416 21.8443C129.416 21.8443 133.782 26.704 137.336 28.3389C140.985 30.0172 147.382 29.9544 147.382 29.9544L155.305 32.5172L164.223 41.0335L168.638 51.8855L163.185 62.0737L153.852 63.8816C153.673 63.0577 153.484 61.0963 154.155 59.8424C154.826 58.5884 151.977 55.2302 150.468 53.7078L147.45 50.6631L144.928 45.8248L140.5 47.1508L139.224 52.1395L139.113 58.4245L140.051 62.7502L134.918 66.2615L130.455 72.8626L127.519 78.3486L123.761 82.7643L119.293 79.825L115.262 73.4643L113.083 68.8522L107.357 68.2639L99.9519 70.8105L93.8286 77.9089L90.4726 84.1785L81.0462 89.6338Z" fill="#422826"/>
<path d="M141.954 88.1674L140.557 85.6893L140.762 85.305L143.73 85.6982C143.73 85.6982 143.839 86.0604 143.86 86.3033C143.962 87.5183 142.084 88.7725 142.084 88.7725L141.954 88.1674Z" fill="white"/>
<path d="M138.932 86.1795L140.427 85.084L142.181 85.1989L143.394 85.4772L145.354 85.2078C145.217 85.464 145.01 86.0206 145.278 86.1973" stroke="#AA8478"/>
<path d="M127.498 116.965L127.403 117.047L127.068 116.826L127.498 116.965L129.103 115.567C129.762 114.994 130.169 115.029 130.714 115.076L130.728 115.077C131.211 115.118 131.36 115.402 131.735 115.74C132.238 116.192 132.074 116.825 132.125 117.555C132.18 118.325 132.619 119.054 132.31 119.755C131.937 120.599 131.289 121.746 130.61 121.235C130.327 121.022 129.808 120.188 129.808 120.188L130.967 118.871C131.104 118.615 131.311 118.059 131.042 117.882C130.706 117.661 130.446 116.451 129.905 116.614C129.599 116.707 128.977 117.216 128.616 117.325L127.498 116.965Z" fill="url(#paint2_radial)"/>
<path d="M136.696 110.695C136.68 110.658 136.663 110.62 136.648 110.579L136.927 110.257L136.696 110.695C137.022 111.407 137.498 111.253 137.637 112.347C137.783 113.498 137.469 113.943 137.283 114.537C137.12 115.057 136.93 115.534 136.446 115.501C135.789 115.455 135.419 115.645 134.775 115.549C134.096 115.448 132.028 116.136 131.504 115.651C130.874 115.068 130.054 114.119 130.674 113.482C130.931 113.218 131.789 112.824 131.789 112.824L133.943 114.007C134.183 113.712 134.295 114.19 134.518 113.933C134.797 113.612 136.171 113.942 136.172 113.316C136.173 112.961 136.087 112.266 136.088 111.848L136.696 110.695Z" fill="url(#paint3_radial)"/>
<path d="M113.21 69.7775C114.857 71.3409 115.539 73.9077 114.846 76.0501C114.175 78.1255 113.481 71.251 111.77 72.4676C110.98 73.0291 111.214 73.6922 110.741 74.3891C110.052 75.4038 111.084 75.747 110.384 76.7523C109.807 77.5808 108.137 78.3021 107.395 78.9432C106.332 79.8624 105.641 78.8283 105.435 79.2126C105.23 79.5969 104.965 79.3998 105.154 80.5863C105.431 82.3315 107.955 79.3113 108.327 80.5953C108.699 81.8792 107.377 86.1018 108.079 86.1477C108.956 86.2052 110.009 86.4854 109.552 87.6364C109.228 88.4503 107.808 89.8594 106.823 91.0376C105.838 92.2158 106.767 95.2635 106.109 95.7641C105.197 96.4583 102.882 94.1605 102.882 94.1605C102.882 94.1605 102.193 91.5657 101.43 90.0878C100.464 88.2184 99.7912 87.0253 99.1766 84.9681C98.3917 82.3407 98.7463 79.3925 99.9876 76.6681C100.711 75.0798 101.534 73.8464 102.792 72.2774C104.576 70.0508 106.755 69.7497 109.365 69.3269C111.98 68.9033 111.809 68.4484 113.21 69.7775Z" fill="url(#paint4_radial)" fill-opacity="0.8"/>
<path d="M113.21 69.7775C114.857 71.3409 115.539 73.9077 114.846 76.0501C114.175 78.1255 113.481 71.251 111.77 72.4676C110.98 73.0291 111.214 73.6922 110.741 74.3891C110.052 75.4038 111.084 75.747 110.384 76.7523C109.807 77.5808 108.137 78.3021 107.395 78.9432C106.332 79.8624 105.641 78.8283 105.435 79.2126C105.23 79.5969 104.965 79.3998 105.154 80.5863C105.431 82.3315 107.955 79.3113 108.327 80.5953C108.699 81.8792 107.377 86.1018 108.079 86.1477C108.956 86.2052 110.009 86.4854 109.552 87.6364C109.228 88.4503 107.808 89.8594 106.823 91.0376C105.838 92.2158 106.767 95.2635 106.109 95.7641C105.197 96.4583 102.882 94.1605 102.882 94.1605C102.882 94.1605 102.193 91.5657 101.43 90.0878C100.464 88.2184 99.7912 87.0253 99.1766 84.9681C98.3917 82.3407 98.7463 79.3925 99.9876 76.6681C100.711 75.0798 101.534 73.8464 102.792 72.2774C104.576 70.0508 106.755 69.7497 109.365 69.3269C111.98 68.9033 111.809 68.4484 113.21 69.7775Z" stroke="#C3877E" stroke-width="0.4"/>
<path d="M113.21 69.7775C114.857 71.3409 115.539 73.9077 114.846 76.0501C114.175 78.1255 113.481 71.251 111.77 72.4676C110.98 73.0291 111.214 73.6922 110.741 74.3891C110.052 75.4038 111.084 75.747 110.384 76.7523C109.807 77.5808 108.137 78.3021 107.395 78.9432C106.332 79.8624 105.641 78.8283 105.435 79.2126C105.23 79.5969 104.965 79.3998 105.154 80.5863C105.431 82.3315 107.955 79.3113 108.327 80.5953C108.699 81.8792 107.377 86.1018 108.079 86.1477C108.956 86.2052 110.009 86.4854 109.552 87.6364C109.228 88.4503 107.808 89.8594 106.823 91.0376C105.838 92.2158 106.767 95.2635 106.109 95.7641C105.197 96.4583 102.882 94.1605 102.882 94.1605C102.882 94.1605 102.193 91.5657 101.43 90.0878C100.464 88.2184 99.7912 87.0253 99.1766 84.9681C98.3917 82.3407 98.7463 79.3925 99.9876 76.6681C100.711 75.0798 101.534 73.8464 102.792 72.2774C104.576 70.0508 106.755 69.7497 109.365 69.3269C111.98 68.9033 111.809 68.4484 113.21 69.7775Z" stroke="url(#paint5_linear)" stroke-width="0.4"/>
<path d="M111.975 72.0832C111.347 71.8432 111.052 71.6799 110.426 71.584C109.027 71.3696 108.149 72.1641 106.842 72.3437C105.759 72.6706 105.012 73.2183 104.059 74.1503C103.577 74.6219 101.872 77.3881 101.872 77.3881C101.872 77.3881 101.199 79.1622 100.768 80.299C100.768 80.299 100.597 81.5051 100.616 82.278C100.662 84.1151 101.353 85.7072 101.862 86.735C102.371 87.7628 103.726 90.0392 103.726 90.0392C103.726 90.0392 104.509 90.5545 104.733 90.7018C104.957 90.849 106.243 90.2769 106.769 89.4429C107.373 88.4835 107.448 87.5032 106.996 86.4745C106.523 85.4011 105.493 85.648 104.645 84.9284C104.028 84.4042 103.517 84.2214 103.172 83.4398C102.834 82.6733 102.892 82.1014 102.988 81.24C103.067 80.5296 103.17 80.1169 103.475 79.4819C103.852 78.6966 104.105 78.1153 104.839 77.7813C105.358 77.5451 106.258 77.6753 106.258 77.6753C106.943 77.7202 107.327 77.7453 108.012 77.7902C108.697 77.8351 108.824 76.8128 109.507 76.6948C109.848 76.6357 110.384 76.7522 110.384 76.7522" stroke="#945F56" stroke-width="0.1"/>
<path d="M140.365 108.946C139.892 108.635 140.21 107.879 139.769 107.515C139.382 107.196 138.556 107.237 138.556 107.237C138.556 107.237 140.827 105.716 141.599 106.64C142.119 107.262 142.381 108.276 141.784 108.84C141.353 109.247 140.838 109.257 140.365 108.946Z" fill="#B38A7F"/>
<path d="M137.809 107.784L138.556 107.237M138.556 107.237C138.556 107.237 139.382 107.196 139.769 107.515C140.21 107.879 139.892 108.635 140.365 108.946C140.838 109.257 141.353 109.247 141.784 108.84C142.381 108.276 142.119 107.262 141.599 106.64C140.827 105.716 138.556 107.237 138.556 107.237Z" stroke="#C0978C" stroke-width="0.3"/>
<path d="M146.09 77.8974C144.958 78.2726 143.643 79.9249 143.643 79.9249C143.643 79.9249 147.24 79.9541 148.083 81.8067C148.377 82.4528 148.28 82.9272 148.473 83.6222C148.701 84.4413 148.453 85.4743 149.199 85.6586C149.621 85.7629 150.282 85.3318 150.282 85.3318L152.339 81.4888C152.339 81.4888 152.266 80.7147 152.079 80.2785C151.743 79.492 151.261 79.2541 150.606 78.7898C149.825 78.236 149.304 78.0217 148.386 77.8489C147.506 77.6832 146.956 77.6101 146.09 77.8974Z" fill="#553832"/>
<path d="M143.136 87.7581L143.951 86.771C143.951 86.771 143.793 87.2186 143.521 87.5476C143.083 88.0774 142.592 88.4162 142.592 88.4162L143.136 87.7581Z" fill="black" stroke="black" stroke-width="0.1"/>
<path d="M295.388 364.303L273.98 343.1L297.356 318.997L332.405 373.734C332.405 373.734 318.114 376.144 310.822 373.734C304.935 371.788 295.388 364.303 295.388 364.303Z" fill="#E3E3E3"/>
<path d="M198.659 192.857L119.87 245.357L124.504 250.857L148.099 237.857L198.659 192.857Z" fill="#EAC2B0"/>
<path d="M74.5161 323.024L57.7685 345.991L55.0468 329.384L48.896 323.818L41.5929 309.984L32.4285 290.287C29.9827 280.961 24.7322 261.746 23.2967 259.488C21.8612 257.23 23.7495 249.634 24.8731 246.118L21.7512 236.512L21.0661 224.282L19.2545 214.388L20.0135 207.951C20.2471 205.97 20.427 201.557 19.2786 199.751C18.1301 197.945 17.4756 193.393 17.2919 191.343L18.9266 177.478C19.1602 175.498 19.9106 165.525 20.503 164.109C20.9769 162.976 24.5 157.872 26.2023 155.462L30.2909 146.044L37.776 136.684L47.5312 129.721L52.2208 122.422L54.6901 108.696L62.6766 109.517C65.6782 110.52 71.8483 112.555 72.5159 112.665C73.1835 112.776 80.5499 116.692 84.1497 118.636L103.011 131.865L110.948 136.717L114.712 140.876L114.72 144.412L110.506 151.285L109.572 159.208L113.412 169.943L114.823 186.838L119.506 201.247L121.827 224.857L124.966 241.534L128.439 248.169L117.743 260.469L122.333 261.231L125.63 269.351L126.983 286.741L120.791 288.742L122.6 297.686C116.466 299.192 103.615 302.107 101.278 301.719C98.9414 301.331 94.3905 303.605 92.4072 304.79L74.5161 323.024Z" fill="#756246"/>
<path d="M74.5161 323.024L57.7685 345.991L55.0468 329.384L48.896 323.818L41.5929 309.984L32.4285 290.287C29.9827 280.961 24.7322 261.746 23.2967 259.488C21.8612 257.23 23.7495 249.634 24.8731 246.118L21.7512 236.512L21.0661 224.282L19.2545 214.388L20.0135 207.951C20.2471 205.97 20.427 201.557 19.2786 199.751C18.1301 197.945 17.4756 193.393 17.2919 191.343L18.9266 177.478C19.1602 175.498 19.9106 165.525 20.503 164.109C20.9769 162.976 24.5 157.872 26.2023 155.462L30.2909 146.044L37.776 136.684L47.5312 129.721L52.2208 122.422L54.6901 108.696L62.6766 109.517C65.6782 110.52 71.8483 112.555 72.5159 112.665C73.1835 112.776 80.5499 116.692 84.1497 118.636L103.011 131.865L110.948 136.717L114.712 140.876L114.72 144.412L110.506 151.285L109.572 159.208L113.412 169.943L114.823 186.838L119.506 201.247L121.827 224.857L124.966 241.534L128.439 248.169L117.743 260.469L122.333 261.231L125.63 269.351L126.983 286.741L120.791 288.742L122.6 297.686C116.466 299.192 103.615 302.107 101.278 301.719C98.9414 301.331 94.3905 303.605 92.4072 304.79L74.5161 323.024Z" fill="url(#paint6_linear)"/>
<path d="M84.7105 305.863L61.1169 336.5L59.269 341.495L69.1885 360.801C69.1885 360.801 80.2854 382.452 92.4715 391.767C107.797 403.482 136.081 399.259 136.081 399.259C137.066 398.593 138.627 397.953 139.982 396.905C143.192 394.42 144.947 393 148.112 390.412C152.831 386.554 155.052 381.945 157.886 377.783C160.719 373.621 165.303 369.253 169.712 363.299C176.954 353.519 179.69 348.981 186.712 336.329C193.734 323.676 207.778 298.171 207.778 297.372C207.778 296.573 220.836 273.399 227.365 262.411C227.365 262.411 226.405 266.195 227.365 267.905L228.843 269.403C228.843 269.403 231.199 274.416 233.278 276.895C235.654 279.728 240.389 290.486 241.87 294C248.611 310 248.932 310.857 248.932 310.857L277.39 352.311C278.006 352.644 279.237 352.81 279.237 350.813C279.237 348.815 282.933 353.31 284.781 355.807L299.194 339.5L310.858 329.345C311.104 328.18 311.449 325.55 310.858 324.351C310.267 323.152 309.626 322.52 309.38 322.353L312.233 316.858L299.194 296.373C294.636 291.046 284.116 273.399 284.411 273.399C284.707 273.399 280.1 266.739 277.759 263.41C273.201 253.92 249.228 210.968 248.932 210.968C248.637 210.968 245.831 207.976 241.027 200.484C241.027 200.484 236.758 193.649 232.6 190.5C230.921 189.229 228.843 186 224.63 188C220.416 190 213.173 196.884 212.582 196.484C211.991 196.084 137.929 285.885 134.972 285.885C132.016 285.885 133.092 285.199 132.016 284.386C129.786 282.704 127.581 277.894 127.581 277.894L118.341 279.891L84.7105 305.863Z" fill="#4C6179"/>
<path d="M84.7105 305.863L61.1169 336.5L59.269 341.495L69.1885 360.801C69.1885 360.801 80.2854 382.452 92.4715 391.767C107.797 403.482 136.081 399.259 136.081 399.259C137.066 398.593 138.627 397.953 139.982 396.905C143.192 394.42 144.947 393 148.112 390.412C152.831 386.554 155.052 381.945 157.886 377.783C160.719 373.621 165.303 369.253 169.712 363.299C176.954 353.519 179.69 348.981 186.712 336.329C193.734 323.676 207.778 298.171 207.778 297.372C207.778 296.573 220.836 273.399 227.365 262.411C227.365 262.411 226.405 266.195 227.365 267.905L228.843 269.403C228.843 269.403 231.199 274.416 233.278 276.895C235.654 279.728 240.389 290.486 241.87 294C248.611 310 248.932 310.857 248.932 310.857L277.39 352.311C278.006 352.644 279.237 352.81 279.237 350.813C279.237 348.815 282.933 353.31 284.781 355.807L299.194 339.5L310.858 329.345C311.104 328.18 311.449 325.55 310.858 324.351C310.267 323.152 309.626 322.52 309.38 322.353L312.233 316.858L299.194 296.373C294.636 291.046 284.116 273.399 284.411 273.399C284.707 273.399 280.1 266.739 277.759 263.41C273.201 253.92 249.228 210.968 248.932 210.968C248.637 210.968 245.831 207.976 241.027 200.484C241.027 200.484 236.758 193.649 232.6 190.5C230.921 189.229 228.843 186 224.63 188C220.416 190 213.173 196.884 212.582 196.484C211.991 196.084 137.929 285.885 134.972 285.885C132.016 285.885 133.092 285.199 132.016 284.386C129.786 282.704 127.581 277.894 127.581 277.894L118.341 279.891L84.7105 305.863Z" fill="url(#paint7_radial)"/>
<path d="M121.275 287.927C123.474 285.042 131.116 281.974 131.116 281.974L126.795 274.361C126.795 274.361 121.498 275.435 117.693 278.739C112.351 283.376 104.611 291.525 104.611 291.525C104.611 291.525 94.641 300.419 89.4965 305.509C82.7048 312.228 77.7281 315.132 71.7565 323.202C66.5693 330.211 60.5674 343.058 60.5674 343.058C63.0326 346.167 65.0326 355.818 65.6235 354.558C66.2143 353.298 73.2426 335.599 75.5485 332.202C80.2325 324.397 89.4965 318.202 89.4965 318.202L109.033 300.634C109.033 300.634 119.075 290.813 121.275 287.927Z" fill="black"/>
<path d="M121.275 287.927C123.474 285.042 131.116 281.974 131.116 281.974L126.795 274.361C126.795 274.361 121.498 275.435 117.693 278.739C112.351 283.376 104.611 291.525 104.611 291.525C104.611 291.525 94.641 300.419 89.4965 305.509C82.7048 312.228 77.7281 315.132 71.7565 323.202C66.5693 330.211 60.5674 343.058 60.5674 343.058C63.0326 346.167 65.0326 355.818 65.6235 354.558C66.2143 353.298 73.2426 335.599 75.5485 332.202C80.2325 324.397 89.4965 318.202 89.4965 318.202L109.033 300.634C109.033 300.634 119.075 290.813 121.275 287.927Z" fill="url(#paint8_linear)"/>
<path d="M145.993 234.357L89.955 264.857L79.0003 252.857L61.3042 281.357C61.3042 281.357 65.8924 303.934 75.6296 306.357C81.2197 307.748 85.2502 306.7 89.955 302.857C90.8228 302.148 91.2361 301.634 92.0617 300.857C116.471 277.885 150.206 260.857 150.206 260.857L158.633 252.357L166.638 248.357L171.273 243.857H180.121L184.755 240.357L190.654 234.357L196.131 226.857L194.446 219.857L196.131 214.357L194.446 212.357L193.603 209.857L199.081 206.357L200.345 203.357V200.357L199.081 195.857L194.446 197.357L188.126 200.357L192.339 195.857L200.345 189.357L204.137 188.357L207.507 185.857L208.35 183.357L207.507 180.857C207.507 180.857 204.487 180.85 202.451 180.857C199.85 180.865 198.187 180.133 196.131 181.857C194.892 182.896 193.603 184.357 193.603 184.357L189.39 188.357L186.862 191.857L179.278 195.857L175.907 200.357L171.273 201.357L162.425 208.357L156.105 223.357L152.313 228.357L145.993 234.357Z" fill="#EAC2B0"/>
<path d="M145.993 234.357L89.955 264.857L79.0003 252.857L61.3042 281.357C61.3042 281.357 65.8924 303.934 75.6296 306.357C81.2197 307.748 85.2502 306.7 89.955 302.857C90.8228 302.148 91.2361 301.634 92.0617 300.857C116.471 277.885 150.206 260.857 150.206 260.857L158.633 252.357L166.638 248.357L171.273 243.857H180.121L184.755 240.357L190.654 234.357L196.131 226.857L194.446 219.857L196.131 214.357L194.446 212.357L193.603 209.857L199.081 206.357L200.345 203.357V200.357L199.081 195.857L194.446 197.357L188.126 200.357L192.339 195.857L200.345 189.357L204.137 188.357L207.507 185.857L208.35 183.357L207.507 180.857C207.507 180.857 204.487 180.85 202.451 180.857C199.85 180.865 198.187 180.133 196.131 181.857C194.892 182.896 193.603 184.357 193.603 184.357L189.39 188.357L186.862 191.857L179.278 195.857L175.907 200.357L171.273 201.357L162.425 208.357L156.105 223.357L152.313 228.357L145.993 234.357Z" fill="url(#paint9_radial)"/>
<path d="M40.0504 150C40.3875 149.2 48.8984 146.333 53.1118 145C55.6398 145.833 60.8643 147.4 61.5385 147C62.2126 146.6 67.9989 151.167 70.8078 153.5L78.8132 160L86.3972 174.5L87.2399 186.5L83.8692 196.5L88.0826 210L88.9252 220L89.7679 230.5L91.4532 248.5L93.9813 257L92.2959 261L95.2453 264L93.9813 265.5H92.2959L87.2399 267.5L83.4479 271L80.0772 277.5L73.7572 283.5C71.9314 285.667 68.1113 289.9 67.4372 289.5C66.5945 289 63.2238 293 62.3811 292.5C61.707 292.1 62.1002 297 62.3811 299.5L59.0105 291.5L51.4264 280L48.0557 273.5L41.3144 253.5L31.2023 229.5C31.7641 225.667 32.8877 217.8 32.8877 217C32.8877 216.2 31.2023 214.333 30.3597 213.5V212.5C29.3766 212 27.4103 210.6 27.4103 209C27.4103 207 27.4103 205 26.5677 203.5C25.725 202 24.8823 193 24.8823 192V179.5C24.8823 178.7 26.5677 172.833 27.4103 170C29.0957 167.167 32.5506 161.2 32.8877 160C33.309 158.5 39.629 151 40.0504 150Z" fill="#756246"/>
<path d="M40.0504 150C40.3875 149.2 48.8984 146.333 53.1118 145C55.6398 145.833 60.8643 147.4 61.5385 147C62.2126 146.6 67.9989 151.167 70.8078 153.5L78.8132 160L86.3972 174.5L87.2399 186.5L83.8692 196.5L88.0826 210L88.9252 220L89.7679 230.5L91.4532 248.5L93.9813 257L92.2959 261L95.2453 264L93.9813 265.5H92.2959L87.2399 267.5L83.4479 271L80.0772 277.5L73.7572 283.5C71.9314 285.667 68.1113 289.9 67.4372 289.5C66.5945 289 63.2238 293 62.3811 292.5C61.707 292.1 62.1002 297 62.3811 299.5L59.0105 291.5L51.4264 280L48.0557 273.5L41.3144 253.5L31.2023 229.5C31.7641 225.667 32.8877 217.8 32.8877 217C32.8877 216.2 31.2023 214.333 30.3597 213.5V212.5C29.3766 212 27.4103 210.6 27.4103 209C27.4103 207 27.4103 205 26.5677 203.5C25.725 202 24.8823 193 24.8823 192V179.5C24.8823 178.7 26.5677 172.833 27.4103 170C29.0957 167.167 32.5506 161.2 32.8877 160C33.309 158.5 39.629 151 40.0504 150Z" fill="url(#paint10_linear)"/>
<path d="M40.0504 150C40.3875 149.2 48.8984 146.333 53.1118 145C55.6398 145.833 60.8643 147.4 61.5385 147C62.2126 146.6 67.9989 151.167 70.8078 153.5L78.8132 160L86.3972 174.5L87.2399 186.5L83.8692 196.5L88.0826 210L88.9252 220L89.7679 230.5L91.4532 248.5L93.9813 257L92.2959 261L95.2453 264L93.9813 265.5H92.2959L87.2399 267.5L83.4479 271L80.0772 277.5L73.7572 283.5C71.9314 285.667 68.1113 289.9 67.4372 289.5C66.5945 289 63.2238 293 62.3811 292.5C61.707 292.1 62.1002 297 62.3811 299.5L59.0105 291.5L51.4264 280L48.0557 273.5L41.3144 253.5L31.2023 229.5C31.7641 225.667 32.8877 217.8 32.8877 217C32.8877 216.2 31.2023 214.333 30.3597 213.5V212.5C29.3766 212 27.4103 210.6 27.4103 209C27.4103 207 27.4103 205 26.5677 203.5C25.725 202 24.8823 193 24.8823 192V179.5C24.8823 178.7 26.5677 172.833 27.4103 170C29.0957 167.167 32.5506 161.2 32.8877 160C33.309 158.5 39.629 151 40.0504 150Z" fill="url(#paint11_linear)"/>
<path d="M48.793 275.493L44.2637 264.333C44.2637 264.333 47.461 256.358 51.321 253.754C56.4121 250.318 60.6757 255.617 66.3179 253.754C73.7141 251.311 76.1532 245.618 82.197 240C86.2796 236.205 92.4604 230 92.4604 230L94.2248 249.044L96.8713 258.036C96.8713 258.036 94.8157 260.457 95.107 262.268C95.406 264.128 98.1945 265.442 98.1945 265.442L96.8713 267.029H95.107C95.107 267.029 91.7237 267.894 89.8139 269.145C88.0875 270.276 87.1916 271.139 85.8442 272.848C84.0336 275.144 84.0211 277.319 82.3155 279.725C80.1766 282.742 75.6992 286.073 75.6992 286.073C73.7878 288.365 69.7887 292.844 69.0829 292.42C68.2008 291.891 64.6721 296.123 63.7899 295.594C63.0842 295.171 61.6657 297.355 61.9597 300L60.2612 294.536L52.3217 282.37L48.793 275.493Z" fill="#978160"/>
<path d="M48.793 275.493L44.2637 264.333C44.2637 264.333 47.461 256.358 51.321 253.754C56.4121 250.318 60.6757 255.617 66.3179 253.754C73.7141 251.311 76.1532 245.618 82.197 240C86.2796 236.205 92.4604 230 92.4604 230L94.2248 249.044L96.8713 258.036C96.8713 258.036 94.8157 260.457 95.107 262.268C95.406 264.128 98.1945 265.442 98.1945 265.442L96.8713 267.029H95.107C95.107 267.029 91.7237 267.894 89.8139 269.145C88.0875 270.276 87.1916 271.139 85.8442 272.848C84.0336 275.144 84.0211 277.319 82.3155 279.725C80.1766 282.742 75.6992 286.073 75.6992 286.073C73.7878 288.365 69.7887 292.844 69.0829 292.42C68.2008 291.891 64.6721 296.123 63.7899 295.594C63.0842 295.171 61.6657 297.355 61.9597 300L60.2612 294.536L52.3217 282.37L48.793 275.493Z" fill="url(#paint12_linear)"/>
<path d="M101.376 131.543L105.853 134.5C105.853 134.5 100.548 142.364 100.723 149C100.933 156.973 105.853 168.647 105.853 168.647L111.925 192.882C113.048 197.781 115.236 208.075 115.236 208.075C115.236 208.075 116.272 218.513 116.82 223.485C117.367 228.456 117.067 231.94 118.637 236.914C119.791 240.571 121.144 242.234 122.708 245.67C123.772 248.006 125.403 251.672 125.403 251.672" stroke="#45341C" stroke-width="0.5"/>
<path d="M54.6178 108.368L52.7876 121.692C52.7876 121.692 60.0051 120.614 64.2188 122.384C68.7991 124.308 70.1646 127.973 74.0818 131.384C78.057 134.846 80.641 136.225 84.4285 139.971C88.1457 143.648 93.2564 150.291 93.2564 150.291L101.442 131.104C101.442 131.104 93.5167 124.997 88.2518 121.46C83.7239 118.418 81.2523 116.501 76.4543 114.112C72.9122 112.348 70.8885 111.389 67.161 110.288C62.3682 108.872 54.6178 108.368 54.6178 108.368Z" fill="#735F43"/>
<path d="M54.6178 108.368L52.7876 121.692C52.7876 121.692 60.0051 120.614 64.2188 122.384C68.7991 124.308 70.1646 127.973 74.0818 131.384C78.057 134.846 80.641 136.225 84.4285 139.971C88.1457 143.648 93.2564 150.291 93.2564 150.291L101.442 131.104C101.442 131.104 93.5167 124.997 88.2518 121.46C83.7239 118.418 81.2523 116.501 76.4543 114.112C72.9122 112.348 70.8885 111.389 67.161 110.288C62.3682 108.872 54.6178 108.368 54.6178 108.368Z" fill="url(#paint13_linear)"/>
<path d="M106.823 135.218C107.408 136.111 108.67 136.499 109.227 136.581C109.227 136.581 109.913 136.286 110.482 136.766C111.42 137.558 112.67 138.883 113.566 139.741C114.541 140.675 114.508 142.904 114.352 144.392C114.352 144.392 113.498 144.434 113.359 145.757C113.221 147.08 111.131 149.459 110.8 149.914C110.47 150.369 110.205 151.539 110.122 152.333C110.039 153.127 109.236 158.08 109.393 159.279C109.55 160.478 113.369 169.944 113.369 169.944C113.98 172.218 114.156 178.626 114.156 178.626C114.073 179.42 114.577 185.406 115.258 188.362C115.52 189.912 116.953 193.248 117.246 193.694C117.612 194.252 118.92 197.973 119.234 199.027C119.548 200.081 120.385 204.236 120.281 205.228C120.177 206.22 121.539 213.476 121.539 213.476C121.121 214.22 121.226 216.453 121.488 218.003C121.75 219.553 121.942 220.421 121.856 222.592C121.77 224.763 123.374 228.359 123.27 229.351C123.153 230.461 124.893 238.157 124.893 238.157C125.562 238.256 125.835 241.319 125.835 241.319C125.835 241.319 126.013 242.167 127.247 244.047C128.259 245.587 129.189 248.775 129.967 250.495" stroke="#45341C" stroke-width="0.5"/>
<path d="M251.957 224.388C251.957 224.388 268.624 259.638 281.931 283.39C290.982 299.545 309.646 322.228 309.646 322.228C309.646 322.228 311.388 325.449 310.432 326.947C305.576 334.558 285.267 355 285.267 355L278.947 347C278.947 347 263.977 326.42 253.667 306C247.259 293.309 242.713 280.5 242.713 280.5" stroke="url(#paint14_radial)" stroke-width="2"/>
<path d="M293.212 363.355C294.15 363.527 295.167 365.149 295.167 365.149C295.167 365.149 305.668 372.538 313.676 374.047C321.745 375.568 334.532 372.68 334.532 372.68C334.532 372.68 390.912 384.298 392.378 385.493C393.843 386.687 393.007 391.516 393.409 393.322C393.811 395.127 389.058 395.498 382.757 396.419C345.695 401.834 287.166 397.161 287.166 397.161C287.166 397.161 287.091 393.854 287.124 391.736C287.29 380.979 288.864 365.833 290.795 364.58C290.795 364.58 292.202 363.171 293.212 363.355Z" fill="#9EDCEA"/>
<path d="M293.212 363.355C294.15 363.527 295.167 365.149 295.167 365.149C295.167 365.149 305.668 372.538 313.676 374.047C321.745 375.568 334.532 372.68 334.532 372.68C334.532 372.68 390.912 384.298 392.378 385.493C393.843 386.687 393.007 391.516 393.409 393.322C393.811 395.127 389.058 395.498 382.757 396.419C345.695 401.834 287.166 397.161 287.166 397.161C287.166 397.161 287.091 393.854 287.124 391.736C287.29 380.979 288.864 365.833 290.795 364.58C290.795 364.58 292.202 363.171 293.212 363.355Z" fill="url(#paint15_linear)"/>
<path d="M287.166 397.162L287.096 388.12L369.128 391.099L393.381 389.705L393.423 395.13L372.581 398.307C372.581 398.307 346.852 398.848 330.366 398.635C313.491 398.417 287.166 397.162 287.166 397.162Z" fill="white"/>
<path d="M287.166 397.162L287.096 388.12L369.128 391.099L393.381 389.705L393.423 395.13L372.581 398.307C372.581 398.307 346.852 398.848 330.366 398.635C313.491 398.417 287.166 397.162 287.166 397.162Z" fill="url(#paint16_linear)"/>
<path d="M287.166 397.162L287.096 388.12L369.128 391.099L393.381 389.705L393.423 395.13L372.581 398.307C372.581 398.307 346.852 398.848 330.366 398.635C313.491 398.417 287.166 397.162 287.166 397.162Z" stroke="#666666" stroke-width="0.5"/>
<path d="M371.818 380.846L334.414 372.711L328.235 374.388C328.235 374.388 331.39 378.407 334.29 378.813C350.019 381.018 358.947 383.207 370.048 383.268C371.611 383.277 371.818 380.846 371.818 380.846Z" fill="#FEFBFB"/>
<path d="M368.983 378.774L335.039 371.245L329.446 372.73C329.446 372.73 332.325 376.376 334.956 376.757C349.224 378.824 357.327 380.844 367.39 380.954C368.806 380.969 368.983 378.774 368.983 378.774Z" fill="#CBCBCB"/>
<defs>
<radialGradient id="paint0_radial" cx="0" cy="0" r="1" gradientUnits="userSpaceOnUse" gradientTransform="translate(255.961 173.357) rotate(153.958) scale(39.8604 37.0708)">
<stop stop-color="white"/>
<stop offset="1" stop-color="white" stop-opacity="0"/>
</radialGradient>
<linearGradient id="paint1_linear" x1="199.433" y1="139.92" x2="87.679" y2="83.8345" gradientUnits="userSpaceOnUse">
<stop stop-color="#EED3C7"/>
<stop offset="1" stop-color="#F3CEBD"/>
</linearGradient>
<radialGradient id="paint2_radial" cx="0" cy="0" r="1" gradientUnits="userSpaceOnUse" gradientTransform="translate(129.418 118.372) rotate(-9.54785) scale(14.6712 19.0366)">
<stop stop-color="#F4CFBF" stop-opacity="0.52"/>
<stop offset="1" stop-color="#A58174"/>
</radialGradient>
<radialGradient id="paint3_radial" cx="0" cy="0" r="1" gradientUnits="userSpaceOnUse" gradientTransform="translate(134.782 112.416) rotate(95.9548) scale(16.4296 16.9992)">
<stop stop-color="#F4CFBF" stop-opacity="0.52"/>
<stop offset="1" stop-color="#A58174"/>
</radialGradient>
<radialGradient id="paint4_radial" cx="0" cy="0" r="1" gradientUnits="userSpaceOnUse" gradientTransform="translate(106.518 78.8857) rotate(74.5295) scale(14.5017 7.94869)">
<stop stop-color="#D8A098"/>
<stop offset="1" stop-color="#F4CFBF"/>
</radialGradient>
<linearGradient id="paint5_linear" x1="94.8663" y1="83.6914" x2="115.953" y2="87.3351" gradientUnits="userSpaceOnUse">
<stop stop-color="#D19C91"/>
<stop offset="1" stop-color="#F4CFBF"/>
</linearGradient>
<linearGradient id="paint6_linear" x1="268.537" y1="203.778" x2="70.957" y2="241.96" gradientUnits="userSpaceOnUse">
<stop stop-color="#AEA18D"/>
<stop offset="1" stop-color="#FFECD0" stop-opacity="0"/>
</linearGradient>
<radialGradient id="paint7_radial" cx="0" cy="0" r="1" gradientUnits="userSpaceOnUse" gradientTransform="translate(162.321 22.677) rotate(80.8986) scale(392.511 481.022)">
<stop stop-color="#C0D3E9"/>
<stop offset="1" stop-color="#A5C5E9" stop-opacity="0"/>
</radialGradient>
<linearGradient id="paint8_linear" x1="173.265" y1="231.798" x2="89.6098" y2="294.209" gradientUnits="userSpaceOnUse">
<stop stop-color="#676767"/>
<stop offset="1" stop-color="white" stop-opacity="0"/>
</linearGradient>
<radialGradient id="paint9_radial" cx="0" cy="0" r="1" gradientUnits="userSpaceOnUse" gradientTransform="translate(228.996 198.357) rotate(164.421) scale(72.609 82.4994)">
<stop stop-color="white"/>
<stop offset="1" stop-color="white" stop-opacity="0"/>
</radialGradient>
<linearGradient id="paint10_linear" x1="164.344" y1="232.5" x2="59.5722" y2="246.083" gradientUnits="userSpaceOnUse">
<stop offset="0.0381726" stop-color="#EACFA8"/>
<stop offset="1" stop-color="#735F43"/>
</linearGradient>
<linearGradient id="paint11_linear" x1="-26.0992" y1="280.5" x2="60.5605" y2="272.663" gradientUnits="userSpaceOnUse">
<stop/>
<stop offset="1" stop-opacity="0"/>
<stop offset="1" stop-color="#756246"/>
</linearGradient>
<linearGradient id="paint12_linear" x1="170.532" y1="232.116" x2="60.2569" y2="256.511" gradientUnits="userSpaceOnUse">
<stop offset="0.0381726" stop-color="#E9D7BE"/>
<stop offset="0.932292" stop-color="#BBA281"/>
</linearGradient>
<linearGradient id="paint13_linear" x1="125.795" y1="121.63" x2="70.7964" y2="135.051" gradientUnits="userSpaceOnUse">
<stop stop-color="#A98D64"/>
<stop offset="1" stop-color="#634D2C"/>
</linearGradient>
<radialGradient id="paint14_radial" cx="0" cy="0" r="1" gradientUnits="userSpaceOnUse" gradientTransform="translate(236.022 232.735) rotate(60.4416) scale(124.692 85.7594)">
<stop offset="0.0441352" stop-color="#7EA1C8"/>
<stop offset="1" stop-color="#6D859F"/>
</radialGradient>
<linearGradient id="paint15_linear" x1="338.561" y1="408.562" x2="348.559" y2="360.134" gradientUnits="userSpaceOnUse">
<stop stop-color="#4999AA"/>
<stop offset="1" stop-color="white" stop-opacity="0"/>
</linearGradient>
<linearGradient id="paint16_linear" x1="338" y1="393" x2="338.5" y2="412" gradientUnits="userSpaceOnUse">
<stop stop-color="white"/>
<stop offset="1" stop-color="#ADADAD" stop-opacity="0"/>
</linearGradient>
</defs>
</svg>
