<svg width="524" height="735" viewBox="0 0 524 735" fill="none" xmlns="http://www.w3.org/2000/svg">
<path d="M308 365.102L0 370V360.449V350.898L308 346V365.102Z" fill="#9E7772"/>
<path d="M262.384 283L308 345.956L0 352L51.5 286.022L262.384 283Z" fill="#CDB1AF"/>
<path d="M39.9434 733L37 370H63V733H39.9434Z" fill="url(#paint0_linear)"/>
<path d="M72 661H67L67.4545 370H72V661Z" fill="url(#paint1_linear)"/>
<path d="M19 208V224L83 315.5H197.5L175 296H84.5L21.5 209L19 208Z" fill="#CFCFCF"/>
<path d="M99 300L100.5 314H105.5L102.5 300H99Z" fill="black"/>
<path d="M105 300L107 314H115L111.5 300H105Z" fill="black"/>
<path d="M113.5 300L117 314H121H125L120 300H113.5Z" fill="black"/>
<path d="M123.5 300L127.5 314H135L130 300H123.5Z" fill="black"/>
<path d="M23 216V225.5L81.5 307L82.5 297L23 216Z" fill="#B5B7D1"/>
<path d="M131.5 300L137 314H144L138 300H131.5Z" fill="black"/>
<path d="M141 300L146.5 313.75H155.5L148 300H141Z" fill="black"/>
<path d="M122 318.5L197 315.5H83V318.5H122Z" fill="#ACACAC"/>
<path d="M395.785 615.137L379.424 604.686L363.938 636.987L377.795 653.574C377.795 653.574 387.741 643.471 391.393 635.265C394.342 628.639 395.785 615.137 395.785 615.137Z" fill="#EDBFBB"/>
<path d="M394.255 613.213C393.84 614.071 394.55 615.849 394.55 615.849C394.55 615.849 394.32 628.688 390.815 636.044C387.282 643.456 377.406 652.076 377.406 652.076C377.406 652.076 353.522 704.453 353.622 706.341C353.722 708.228 358.114 710.403 359.335 711.793C360.555 713.182 363.659 709.564 368.12 705.019C394.359 678.29 425.118 628.277 425.118 628.277C425.118 628.277 422.492 626.265 420.762 625.042C411.979 618.83 398.821 611.164 396.67 611.984C396.67 611.984 394.702 612.288 394.255 613.213Z" fill="#9EDCEA"/>
<path d="M394.255 613.213C393.84 614.071 394.55 615.849 394.55 615.849C394.55 615.849 394.32 628.688 390.815 636.044C387.282 643.456 377.406 652.076 377.406 652.076C377.406 652.076 353.522 704.453 353.622 706.341C353.722 708.228 358.114 710.403 359.335 711.793C360.555 713.182 363.659 709.564 368.12 705.019C394.359 678.29 425.118 628.277 425.118 628.277C425.118 628.277 422.492 626.265 420.762 625.042C411.979 618.83 398.821 611.164 396.67 611.984C396.67 611.984 394.702 612.288 394.255 613.213Z" fill="url(#paint2_linear)"/>
<path d="M425.118 628.277L417.859 622.885L371.866 690.877L356.431 709.636L360.787 712.871L375.648 697.917C375.648 697.917 391.264 677.463 400.819 664.026C410.6 650.272 425.118 628.277 425.118 628.277Z" fill="white" stroke="#666666" stroke-width="0.5"/>
<path d="M362 687L377.5 652L382.5 648C382.5 648 383.883 652.918 382.5 655.5C375 669.5 371.5 678 365 687C364.085 688.266 362 687 362 687Z" fill="#FEFBFB"/>
<path d="M362 683.488L375.948 651.64L380.447 648C380.447 648 381.691 652.475 380.447 654.825C373.698 667.564 370.549 675.298 364.7 683.488C363.877 684.64 362 683.488 362 683.488Z" fill="#CBCBCB"/>
<path d="M232.966 700.23L231.965 680.841L196.677 687.007L191.23 707.922C191.23 707.922 205.231 710.147 214.032 708.351C221.138 706.901 232.966 700.23 232.966 700.23Z" fill="#EDBFBB"/>
<path d="M233.643 697.866C232.703 698.027 231.668 699.638 231.668 699.638C231.668 699.638 221.086 706.911 213.062 708.332C204.976 709.764 192.223 706.735 192.223 706.735C192.223 706.735 135.717 717.732 134.239 718.91C132.761 720.088 133.544 724.926 133.122 726.727C132.699 728.528 137.448 728.951 143.738 729.941C180.739 735.765 239.315 731.737 239.315 731.737C239.315 731.737 239.427 728.431 239.417 726.313C239.37 715.554 237.963 700.392 236.046 699.117C236.046 699.117 234.655 697.693 233.643 697.866Z" fill="#9EDCEA"/>
<path d="M233.643 697.866C232.703 698.027 231.668 699.638 231.668 699.638C231.668 699.638 221.086 706.911 213.062 708.332C204.976 709.764 192.223 706.735 192.223 706.735C192.223 706.735 135.717 717.732 134.239 718.91C132.761 720.088 133.544 724.926 133.122 726.727C132.699 728.528 137.448 728.951 143.738 729.941C180.739 735.765 239.315 731.737 239.315 731.737C239.315 731.737 239.427 728.431 239.417 726.313C239.37 715.554 237.963 700.392 236.046 699.117C236.046 699.117 234.655 697.693 233.643 697.866Z" fill="url(#paint3_linear)"/>
<path d="M239.315 731.737L239.485 722.697L157.425 724.772L133.189 723.111L133.088 728.535L153.893 731.941C153.893 731.941 179.614 732.765 196.102 732.734C212.978 732.702 239.315 731.737 239.315 731.737Z" fill="white" stroke="#666666" stroke-width="0.5"/>
<path d="M154.848 714.49L192.339 706.768L198.5 708.513C198.5 708.513 195.301 712.496 192.396 712.871C176.644 714.902 167.693 716.992 156.591 716.932C155.029 716.923 154.848 714.49 154.848 714.49Z" fill="#FEFBFB"/>
<path d="M157.706 712.449L191.731 705.295L197.307 706.842C197.307 706.842 194.388 710.455 191.753 710.807C177.463 712.717 169.339 714.648 159.275 714.646C157.859 714.646 157.706 712.449 157.706 712.449Z" fill="#CBCBCB"/>
<path d="M215.956 489L214 366H236V469.781L215.956 489Z" fill="url(#paint4_linear)"/>
<path d="M399.83 366.3C367.954 368.769 356 369.756 356 369.756V371.731V378.15H358.988L366.459 378.15L399.83 377.163L430.212 379.631L481.514 390L485 380.619C485 380.619 468.224 375.809 458.602 373.213C441.253 368.531 417.756 364.912 399.83 366.3Z" fill="#9E5C54"/>
<path d="M324.5 398C346 387.5 359.585 375.797 359.585 375.797L438.543 381V402.424L246.412 528.346L236.5 692H189L192.948 663.902C192.948 663.902 194.235 581.558 194.65 540.834C194.746 531.487 193.067 526.055 194.65 516.898C199.356 489.688 215.15 486.514 233.691 469.548C249.044 455.498 256.272 446.238 268.783 435.725C279.311 426.88 294.69 414.732 294.69 414.732C294.69 414.732 314.705 402.784 324.5 398Z" fill="#4C6179"/>
<path d="M324.5 398C346 387.5 359.585 375.797 359.585 375.797L438.543 381V402.424L246.412 528.346L236.5 692H189L192.948 663.902C192.948 663.902 194.235 581.558 194.65 540.834C194.746 531.487 193.067 526.055 194.65 516.898C199.356 489.688 215.15 486.514 233.691 469.548C249.044 455.498 256.272 446.238 268.783 435.725C279.311 426.88 294.69 414.732 294.69 414.732C294.69 414.732 314.705 402.784 324.5 398Z" fill="url(#paint5_linear)"/>
<path d="M324.5 398C346 387.5 359.585 375.797 359.585 375.797L438.543 381V402.424L246.412 528.346L236.5 692H189L192.948 663.902C192.948 663.902 194.235 581.558 194.65 540.834C194.746 531.487 193.067 526.055 194.65 516.898C199.356 489.688 215.15 486.514 233.691 469.548C249.044 455.498 256.272 446.238 268.783 435.725C279.311 426.88 294.69 414.732 294.69 414.732C294.69 414.732 314.705 402.784 324.5 398Z" fill="url(#paint6_linear)"/>
<path d="M441 369.5L438 380.5H440L443 371L441 369.5Z" fill="#4C6179"/>
<path d="M367.668 366.915L370.032 378.069L371.811 377.154L370.132 367.334L367.668 366.915Z" fill="#4C6179"/>
<path d="M289.256 436.4C289.256 436.4 319.58 415.506 338.432 404.314C371.367 384.761 371.367 378.745 371.367 378.745C371.367 378.745 400.25 375.041 418.739 376.238C443.507 377.843 481 390.276 481 390.276L477.391 413.338C477.391 413.338 475.35 420.147 474.233 424.368C471.977 432.891 473.722 434.786 470.623 440.411C465.585 449.557 458.221 454.835 448.516 455.451C432.726 456.454 429.023 460.928 411.972 463.974C405.387 465.15 401.766 466.261 395.279 467.985C388.546 469.774 384.559 470.13 378.135 472.998C372.576 475.48 369.846 477.805 364.6 481.02C355.127 486.825 342.042 494.055 332.116 498.065C304.523 509.215 268.051 518.119 268.051 518.119L332.567 557.726C332.567 557.726 339.676 562.566 343.846 566.248C349.212 570.987 353.235 573.336 358.284 576.777C363.188 580.118 378.056 600.398 380.842 600.34C385.175 600.249 386.741 607.533 390.767 611.871L369 643L293.603 599.337L268.051 581.289L252.26 567.251L238.274 557.726L221.13 543.688C221.13 543.688 208.61 535.165 208.046 533.661C207.482 532.157 203.535 528.146 203.535 521.127C203.535 514.108 202.332 511.769 203.535 506.588C204.738 501.408 203.853 496.541 204.888 492.551C207.108 483.994 213.792 480.589 221.13 477.009C239.628 467.985 252.26 453.446 271.209 450.939C281.114 449.629 289.256 436.4 289.256 436.4Z" fill="#4C6179"/>
<path d="M289.256 436.4C289.256 436.4 319.58 415.506 338.432 404.314C371.367 384.761 371.367 378.745 371.367 378.745C371.367 378.745 400.25 375.041 418.739 376.238C443.507 377.843 481 390.276 481 390.276L477.391 413.338C477.391 413.338 475.35 420.147 474.233 424.368C471.977 432.891 473.722 434.786 470.623 440.411C465.585 449.557 458.221 454.835 448.516 455.451C432.726 456.454 429.023 460.928 411.972 463.974C405.387 465.15 401.766 466.261 395.279 467.985C388.546 469.774 384.559 470.13 378.135 472.998C372.576 475.48 369.846 477.805 364.6 481.02C355.127 486.825 342.042 494.055 332.116 498.065C304.523 509.215 268.051 518.119 268.051 518.119L332.567 557.726C332.567 557.726 339.676 562.566 343.846 566.248C349.212 570.987 353.235 573.336 358.284 576.777C363.188 580.118 378.056 600.398 380.842 600.34C385.175 600.249 386.741 607.533 390.767 611.871L369 643L293.603 599.337L268.051 581.289L252.26 567.251L238.274 557.726L221.13 543.688C221.13 543.688 208.61 535.165 208.046 533.661C207.482 532.157 203.535 528.146 203.535 521.127C203.535 514.108 202.332 511.769 203.535 506.588C204.738 501.408 203.853 496.541 204.888 492.551C207.108 483.994 213.792 480.589 221.13 477.009C239.628 467.985 252.26 453.446 271.209 450.939C281.114 449.629 289.256 436.4 289.256 436.4Z" fill="url(#paint7_linear)"/>
<path d="M352.049 111.81L362.28 125.098L354.282 129.225L336.981 140.401L332.693 154.991L330.211 170.9L303.313 148.207L286.543 148.42L282.057 147.358L277.772 144.505L277.515 141.825L278.146 138.686L274.993 136.937L272.771 138.084L271.639 136.98L270.952 135.647L272.242 131.605L265.52 130.572L263.873 124.108L262.54 124.796L255.159 124.665L253.554 121.555L254.431 102.536L252.827 99.4254L249.388 92.7602L247.024 82.727L247.084 69.7561L236.55 67.8768L231.277 57.6569L236.08 48.4274L247.791 37.3215L254.7 35.445L264.331 36.6648L272.601 36.3365L279.883 28.641L291.465 24.9164L305.811 27.6418L325.173 37.907L333.814 49.2025L343.213 67.4207L346.779 84.1474L345.316 92.2164L349.069 106.034L352.049 111.81Z" fill="#F4CFBF"/>
<path d="M352.049 111.81L362.28 125.098L354.282 129.225L336.981 140.401L332.693 154.991L330.211 170.9L303.313 148.207L286.543 148.42L282.057 147.358L277.772 144.505L277.515 141.825L278.146 138.686L274.993 136.937L272.771 138.084L271.639 136.98L270.952 135.647L272.242 131.605L265.52 130.572L263.873 124.108L262.54 124.796L255.159 124.665L253.554 121.555L254.431 102.536L252.827 99.4254L249.388 92.7602L247.024 82.727L247.084 69.7561L236.55 67.8768L231.277 57.6569L236.08 48.4274L247.791 37.3215L254.7 35.445L264.331 36.6648L272.601 36.3365L279.883 28.641L291.465 24.9164L305.811 27.6418L325.173 37.907L333.814 49.2025L343.213 67.4207L346.779 84.1474L345.316 92.2164L349.069 106.034L352.049 111.81Z" fill="url(#paint8_linear)"/>
<path d="M337.906 103.062L348.722 104L347.161 91.9768C347.837 91.0543 349.096 89.0282 348.722 88.3033C348.348 87.5783 348.351 82.3752 348.4 79.8642L346.428 67.1128L338.455 49.4263L328.48 36.7888C325.643 35.3839 319.783 32.2116 319.035 30.7617C318.286 29.3118 309.836 26.3286 305.704 25.0182L294.01 22.4462L282.133 23.9845C282.133 23.9845 276.19 29.2025 271.544 30.8379C266.775 32.5167 258.662 32.0777 258.662 32.0777L248.396 34.506L236.374 43.5772L229.873 55.5364L235.951 67.3166L247.645 69.8886C247.94 68.9715 248.342 66.775 247.594 65.3252C246.846 63.8753 250.74 60.2598 252.781 58.6333L256.862 55.3803L260.463 50.0803L265.972 51.8275L267.179 57.5155L266.8 64.5953L265.252 69.4096L271.475 73.6569L276.593 81.3431L279.865 87.6862L284.269 92.8723L290.182 89.8214L295.824 82.8949L298.97 77.8296L306.286 77.4972L315.472 80.7895L322.655 89.1308L326.395 96.3802L337.906 103.062Z" fill="#422826"/>
<path d="M260.734 97.9057L262.713 95.1972L262.483 94.7528L258.685 95.0245C258.685 95.0245 258.516 95.4258 258.47 95.6981C258.24 97.0596 260.519 98.5793 260.519 98.5793L260.734 97.9057Z" fill="white"/>
<path d="M264.733 95.8425L262.928 94.5236L260.692 94.5519L259.13 94.7953L256.664 94.3793C256.817 94.6755 257.034 95.3138 256.679 95.4972" stroke="#AA8478"/>
<path d="M276.697 131.148L276.81 131.246L277.255 131.017L276.697 131.148L274.775 129.483C273.987 128.8 273.467 128.816 272.773 128.837L272.754 128.837C272.137 128.856 271.925 129.167 271.421 129.525C270.746 130.005 270.902 130.727 270.776 131.546C270.643 132.409 270.026 133.204 270.36 134.011C270.763 134.982 271.49 136.31 272.395 135.774C272.771 135.552 273.499 134.642 273.499 134.642L272.137 133.094C271.985 132.798 271.768 132.159 272.123 131.976C272.568 131.747 272.998 130.4 273.671 130.615C274.053 130.736 274.799 131.346 275.248 131.489L276.697 131.148Z" fill="url(#paint9_radial)"/>
<path d="M265.543 123.562C265.567 123.522 265.591 123.479 265.615 123.434L265.287 123.056L265.543 123.562C265.072 124.344 264.48 124.144 264.213 125.368C263.932 126.654 264.294 127.173 264.481 127.852C264.644 128.447 264.846 128.995 265.464 128.985C266.301 128.971 266.754 129.206 267.579 129.136C268.45 129.061 271.017 129.954 271.722 129.439C272.571 128.819 273.69 127.798 272.955 127.046C272.65 126.733 271.595 126.24 271.595 126.24L268.763 127.448C268.484 127.102 268.301 127.634 268.039 127.332C267.712 126.954 265.942 127.247 265.992 126.542C266.02 126.143 266.186 125.365 266.219 124.895L265.543 123.562Z" fill="url(#paint10_radial)"/>
<path d="M298.733 78.8637C296.512 80.5283 295.436 83.3779 296.138 85.8289C296.818 88.2033 298.267 80.5063 300.338 81.9741C301.294 82.6515 300.941 83.3843 301.484 84.1959C302.274 85.3775 300.937 85.7044 301.742 86.8761C302.405 87.8417 304.465 88.7496 305.353 89.5139C306.626 90.6096 307.589 89.4855 307.818 89.9299C308.047 90.3742 308.399 90.1676 308.061 91.4922C307.565 93.4403 304.612 89.8959 304.034 91.3195C303.456 92.7431 304.784 97.5715 303.89 97.5828C302.772 97.597 301.412 97.8517 301.897 99.1735C302.24 100.108 303.926 101.776 305.078 103.158C306.231 104.541 304.8 107.918 305.594 108.519C306.694 109.353 309.822 106.9 309.822 106.9C309.822 106.9 310.91 104.019 312.001 102.4C313.381 100.352 314.334 99.0475 315.284 96.7677C316.498 93.8559 316.292 90.5174 314.942 87.3798C314.155 85.5506 313.213 84.1151 311.746 82.2769C309.666 79.6683 306.926 79.204 303.649 78.5778C300.366 77.9506 300.621 77.4485 298.733 78.8637Z" fill="url(#paint11_radial)" fill-opacity="0.8"/>
<path d="M298.733 78.8637C296.512 80.5283 295.436 83.3779 296.138 85.8289C296.818 88.2033 298.267 80.5063 300.338 81.9741C301.294 82.6515 300.941 83.3843 301.484 84.1959C302.274 85.3775 300.937 85.7044 301.742 86.8761C302.405 87.8417 304.465 88.7496 305.353 89.5139C306.626 90.6096 307.589 89.4855 307.818 89.9299C308.047 90.3742 308.399 90.1676 308.061 91.4922C307.565 93.4403 304.612 89.8959 304.034 91.3195C303.456 92.7431 304.784 97.5715 303.89 97.5828C302.772 97.597 301.412 97.8517 301.897 99.1735C302.24 100.108 303.926 101.776 305.078 103.158C306.231 104.541 304.8 107.918 305.594 108.519C306.694 109.353 309.822 106.9 309.822 106.9C309.822 106.9 310.91 104.019 312.001 102.4C313.381 100.352 314.334 99.0475 315.284 96.7677C316.498 93.8559 316.292 90.5174 314.942 87.3798C314.155 85.5506 313.213 84.1151 311.746 82.2769C309.666 79.6683 306.926 79.204 303.649 78.5778C300.366 77.9506 300.621 77.4485 298.733 78.8637Z" stroke="#C3877E" stroke-width="0.4"/>
<path d="M298.733 78.8637C296.512 80.5283 295.436 83.3779 296.138 85.8289C296.818 88.2033 298.267 80.5063 300.338 81.9741C301.294 82.6515 300.941 83.3843 301.484 84.1959C302.274 85.3775 300.937 85.7044 301.742 86.8761C302.405 87.8417 304.465 88.7496 305.353 89.5139C306.626 90.6096 307.589 89.4855 307.818 89.9299C308.047 90.3742 308.399 90.1676 308.061 91.4922C307.565 93.4403 304.612 89.8959 304.034 91.3195C303.456 92.7431 304.784 97.5715 303.89 97.5828C302.772 97.597 301.412 97.8517 301.897 99.1735C302.24 100.108 303.926 101.776 305.078 103.158C306.231 104.541 304.8 107.918 305.594 108.519C306.694 109.353 309.822 106.9 309.822 106.9C309.822 106.9 310.91 104.019 312.001 102.4C313.381 100.352 314.334 99.0475 315.284 96.7677C316.498 93.8559 316.292 90.5174 314.942 87.3798C314.155 85.5506 313.213 84.1151 311.746 82.2769C309.666 79.6683 306.926 79.204 303.649 78.5778C300.366 77.9506 300.621 77.4485 298.733 78.8637Z" stroke="url(#paint12_linear)" stroke-width="0.4"/>
<path d="M300.108 81.5297C300.925 81.2958 301.313 81.129 302.115 81.0571C303.908 80.8963 304.958 81.8411 306.601 82.1184C307.948 82.5486 308.851 83.208 309.983 84.3118C310.556 84.8703 312.491 88.0817 312.491 88.0817C312.491 88.0817 313.198 90.1171 313.651 91.4214C313.651 91.4214 313.768 92.7885 313.68 93.6573C313.469 95.7222 312.461 97.4743 311.73 98.6017C310.998 99.7291 309.092 102.213 309.092 102.213C309.092 102.213 308.055 102.748 307.759 102.901C307.462 103.054 305.878 102.336 305.279 101.367C304.591 100.252 304.577 99.1447 305.237 98.013C305.925 96.8322 307.212 97.1694 308.347 96.4083C309.174 95.8539 309.838 95.6775 310.34 94.8177C310.832 93.9745 310.806 93.3275 310.756 92.3525C310.714 91.5485 310.618 91.0781 310.283 90.3459C309.869 89.4404 309.596 88.7716 308.693 88.3534C308.054 88.0577 306.901 88.1525 306.901 88.1525C306.028 88.1635 305.538 88.1697 304.665 88.1808C303.792 88.1918 303.716 87.034 302.859 86.8619C302.431 86.7758 301.742 86.8761 301.742 86.8761" stroke="#945F56" stroke-width="0.1"/>
<path d="M261.032 121.383C261.657 121.06 261.316 120.19 261.906 119.806C262.423 119.469 263.468 119.563 263.468 119.563C263.468 119.563 260.712 117.721 259.656 118.716C258.946 119.386 258.529 120.512 259.24 121.182C259.753 121.664 260.406 121.705 261.032 121.383Z" fill="#B38A7F"/>
<path d="M264.371 120.222L263.468 119.563M263.468 119.563C263.468 119.563 262.423 119.469 261.906 119.806C261.316 120.19 261.657 121.06 261.032 121.383C260.406 121.705 259.753 121.664 259.24 121.182C258.529 120.512 258.946 119.386 259.656 118.716C260.712 117.721 263.468 119.563 263.468 119.563Z" stroke="#C0978C" stroke-width="0.3"/>
<path d="M256.336 86.1093C257.741 86.5968 259.274 88.532 259.274 88.532C259.274 88.532 254.706 88.3578 253.483 90.3943C253.057 91.1045 253.141 91.644 252.838 92.4151C252.481 93.3238 252.711 94.5007 251.748 94.6651C251.204 94.7582 250.401 94.235 250.401 94.235L248.109 89.7915C248.109 89.7915 248.266 88.9245 248.539 88.4443C249.03 87.5786 249.662 87.3385 250.531 86.8537C251.569 86.2754 252.247 86.0641 253.427 85.9225C254.557 85.7868 255.26 85.7361 256.336 86.1093Z" fill="#553832"/>
<path d="M259.158 97.0312L258.47 95.6981C258.47 95.6981 258.522 96.2342 258.751 96.6785C259.12 97.394 259.616 97.9199 259.616 97.9199L259.158 97.0312Z" fill="black" stroke="black" stroke-width="0.1"/>
<path d="M272 367H245.527L244 733H269.964L272 367Z" fill="url(#paint13_linear)"/>
<path d="M452 482H439.709L439 708H451.055L452 482Z" fill="url(#paint14_linear)"/>
<path d="M385.281 481.575C380.164 476.283 367.903 462.989 376.5 459.5C411 445.5 433.5 452.5 459 445C459 445 479.712 441.576 489.5 433C495.335 427.887 495.16 420.545 502.472 417.956C505.97 416.718 508.214 417 511.924 417C517 417 522 439.5 515.346 450.827C515.346 450.827 508 476.5 485.131 480.017C450.585 485.329 408 495.823 396.086 489.025C391.634 486.486 388.843 485.26 385.281 481.575Z" fill="black"/>
<path d="M385.281 481.575C380.164 476.283 367.903 462.989 376.5 459.5C411 445.5 433.5 452.5 459 445C459 445 479.712 441.576 489.5 433C495.335 427.887 495.16 420.545 502.472 417.956C505.97 416.718 508.214 417 511.924 417C517 417 522 439.5 515.346 450.827C515.346 450.827 508 476.5 485.131 480.017C450.585 485.329 408 495.823 396.086 489.025C391.634 486.486 388.843 485.26 385.281 481.575Z" fill="url(#paint15_radial)"/>
<path d="M424 636.5C426.79 633.71 439.5 636.5 439.5 636.5V640.5C439.5 640.5 428 639 426.5 640.5C419.5 647.5 412.5 657.5 405.5 667.5C403.316 670.62 435.5 671 437 669.5C438.5 668 439.024 667.163 440 661.5H446C446 661.5 449.008 671.525 442 673C432.5 675 392.944 673.5 394 671C395.056 668.5 421.21 639.29 424 636.5Z" fill="#C4C4C4"/>
<path d="M424 636.5C426.79 633.71 439.5 636.5 439.5 636.5V640.5C439.5 640.5 428 639 426.5 640.5C419.5 647.5 412.5 657.5 405.5 667.5C403.316 670.62 435.5 671 437 669.5C438.5 668 439.024 667.163 440 661.5H446C446 661.5 449.008 671.525 442 673C432.5 675 392.944 673.5 394 671C395.056 668.5 421.21 639.29 424 636.5Z" fill="url(#paint16_radial)"/>
<path d="M121.5 302C121.5 302 117.555 307.774 117 305C116.5 302.5 117.989 301.577 119.5 299.5C123.5 294 127.446 288.326 132.5 289C140 290 144 290 144 290C145 291.5 144.053 291.241 142.5 291.5C136.5 292.5 137 290.5 133 291.5C130.999 292 130.419 292.291 129.027 292.987L129 293C128 293.5 121.5 302 121.5 302Z" fill="black" fill-opacity="0.3"/>
<path d="M115.5 293.5C113.746 296.131 111.5 300 109.5 303.5C109.21 304.009 107.944 305.815 108.5 306C108.914 306.138 109.191 305.809 109.5 305.5C112 303 119 291.5 119 291.5C119 291.5 122.5 287.5 124 287C128.22 285.593 139 284 144 283C145.381 282.724 143.5 282.5 141 282.5C137.5 282.5 126.5 285 126.5 285C125 285.5 122 286.286 121 287C120 287.714 117.5 290.5 115.5 293.5Z" fill="black" fill-opacity="0.2"/>
<path d="M326 189.5L314.5 172L320.5 162L335.5 132L354.5 112L363.5 116.5L345.5 137L334.5 163.5L326 189.5Z" fill="url(#paint17_linear)" stroke="black" stroke-width="0.2"/>
<path d="M310 173L312 155.5L321 162L314.5 172L317 176L316.5 178L310 173Z" fill="#7E694C" stroke="black" stroke-width="0.2"/>
<path d="M359 373.5C359 373.5 363.725 361.74 363 354C362.624 349.992 361.399 347.924 360.5 344C357.89 332.61 355.5 314.5 355.5 314.5" stroke="black" stroke-width="0.5"/>
<path d="M356.5 374C356.5 374 361.225 362.24 360.5 354.5C360.124 350.492 358.899 348.424 358 344.5C355.39 333.11 353 315 353 315" stroke="black" stroke-width="0.5"/>
<path d="M316.5 178L330 195.5" stroke="black" stroke-width="0.2"/>
<path d="M392 373.5H355.5C355.5 373.5 360.429 358.52 357.5 347C354.571 335.48 356.5 305 343 305L292 318.5L205 315.5L202.5 305C203.167 300 187.1 298.8 185.5 296C183.9 293.2 187.833 288.167 190 286L197.5 277.5H209.5V274L208 271H195L197.5 265.5L216.5 263.5L256.5 261H273L280.5 253C283.167 251.167 292.8 247.2 292 246C291 244.5 295 237.5 295.5 235.5C296 233.5 304 227.5 304 225.5C304 223.9 309 217.5 311.5 214.5L316.5 177.5L310 173V171.5L312.5 156L321.556 162.5L321.5 161L335.5 131.5L354.5 112C354.5 112 367.918 116.781 375 123C386.52 133.116 392.644 139.174 403.5 150C412.887 159.362 418.722 164.144 427 174.5C438.438 188.809 443.322 198.109 451.5 214.5C458.105 227.739 459.357 232.128 464.5 246C472.099 266.5 472.557 279.53 474.5 300.5C475.365 309.833 481.3 315.654 482 325C482.872 336.652 485.91 343.472 484 355C483.021 360.909 480.93 363.107 482 369C482.949 374.226 484.12 376.262 485 381.5C485.961 387.225 474.5 379 474.5 379L457 375C457 375 452.184 374.246 450.5 373.5C444.187 370.706 434 371.5 434 371.5L392 373.5Z" fill="#735F43"/>
<path d="M392 373.5H355.5C355.5 373.5 360.429 358.52 357.5 347C354.571 335.48 356.5 305 343 305L292 318.5L205 315.5L202.5 305C203.167 300 187.1 298.8 185.5 296C183.9 293.2 187.833 288.167 190 286L197.5 277.5H209.5V274L208 271H195L197.5 265.5L216.5 263.5L256.5 261H273L280.5 253C283.167 251.167 292.8 247.2 292 246C291 244.5 295 237.5 295.5 235.5C296 233.5 304 227.5 304 225.5C304 223.9 309 217.5 311.5 214.5L316.5 177.5L310 173V171.5L312.5 156L321.556 162.5L321.5 161L335.5 131.5L354.5 112C354.5 112 367.918 116.781 375 123C386.52 133.116 392.644 139.174 403.5 150C412.887 159.362 418.722 164.144 427 174.5C438.438 188.809 443.322 198.109 451.5 214.5C458.105 227.739 459.357 232.128 464.5 246C472.099 266.5 472.557 279.53 474.5 300.5C475.365 309.833 481.3 315.654 482 325C482.872 336.652 485.91 343.472 484 355C483.021 360.909 480.93 363.107 482 369C482.949 374.226 484.12 376.262 485 381.5C485.961 387.225 474.5 379 474.5 379L457 375C457 375 452.184 374.246 450.5 373.5C444.187 370.706 434 371.5 434 371.5L392 373.5Z" fill="url(#paint18_linear)"/>
<path d="M320.5 178V163.5L311.5 157V172.5L316.5 178L311.5 215.5L303 224V228L295 235L293 246L281.5 252.5L271.5 260.5C248.167 262.167 200.6 265.5 197 265.5H204.5L209 272.5V276L238.5 284L274.5 278H303L320.5 268L324 235L330 212V197L320.5 178Z" fill="#735F43"/>
<path d="M320.5 178V163.5L311.5 157V172.5L316.5 178L311.5 215.5L303 224V228L295 235L293 246L281.5 252.5L271.5 260.5C248.167 262.167 200.6 265.5 197 265.5H204.5L209 272.5V276L238.5 284L274.5 278H303L320.5 268L324 235L330 212V197L320.5 178Z" fill="url(#paint19_radial)"/>
<path d="M173.044 283.033C173.044 283.033 179.218 288.301 184.1 289.502C188.227 290.517 195 289.502 195 289.502L187.482 293.383V299.421L186.598 311.497L173.044 310.634C173.044 310.634 161.223 310.538 153.874 308.478C146.683 306.462 137.899 299.009 137.899 299.009C137.899 299.009 135.162 298.643 133.477 299.009C131.592 299.417 126.732 304.643 125.286 305.89C122.545 308.255 123.921 310.103 121.5 311.497C119.864 312.439 118.604 312.005 117.326 310.634C116.164 309.388 117.326 306.322 117.326 306.322C117.326 306.322 117.162 304.98 116.884 304.165C116.441 302.871 114.23 308.478 114.23 308.478C113.051 308.765 110.604 309.168 110.251 308.478C109.808 307.615 108.039 305.89 107.155 304.165C106.447 302.785 108.334 299.277 109.366 297.696L119.095 284.758L135.457 280.445C135.457 280.445 138.761 279.493 141.935 278.289C154.162 273.648 173.044 283.033 173.044 283.033Z" fill="#F2CFC0"/>
<path d="M173.044 283.033C173.044 283.033 179.218 288.301 184.1 289.502C188.227 290.517 195 289.502 195 289.502L187.482 293.383V299.421L186.598 311.497L173.044 310.634C173.044 310.634 161.223 310.538 153.874 308.478C146.683 306.462 137.899 299.009 137.899 299.009C137.899 299.009 135.162 298.643 133.477 299.009C131.592 299.417 126.732 304.643 125.286 305.89C122.545 308.255 123.921 310.103 121.5 311.497C119.864 312.439 118.604 312.005 117.326 310.634C116.164 309.388 117.326 306.322 117.326 306.322C117.326 306.322 117.162 304.98 116.884 304.165C116.441 302.871 114.23 308.478 114.23 308.478C113.051 308.765 110.604 309.168 110.251 308.478C109.808 307.615 108.039 305.89 107.155 304.165C106.447 302.785 108.334 299.277 109.366 297.696L119.095 284.758L135.457 280.445C135.457 280.445 138.761 279.493 141.935 278.289C154.162 273.648 173.044 283.033 173.044 283.033Z" fill="url(#paint20_linear)"/>
<path d="M174.5 271C177.773 271.556 181.5 272.5 182.5 272.5C183.5 272.5 184.634 272.545 186 272.5C191.743 272.312 200.5 270 200.5 270H207.5L211.5 277V280.5L200 280L197 284.5L185 289.5C185 289.5 164.5 282 157 278.5C149.5 275 136.5 280 136.5 280C136.5 280 142.758 271.51 149.5 270C153.125 269.188 159 268.5 159 268.5C159 268.5 163.509 269.5 168 269.5C169.757 269.5 172.767 270.706 174.5 271Z" fill="#F2CFC0"/>
<path d="M174.5 271C177.773 271.556 181.5 272.5 182.5 272.5C183.5 272.5 184.634 272.545 186 272.5C191.743 272.312 200.5 270 200.5 270H207.5L211.5 277V280.5L200 280L197 284.5L185 289.5C185 289.5 164.5 282 157 278.5C149.5 275 136.5 280 136.5 280C136.5 280 142.758 271.51 149.5 270C153.125 269.188 159 268.5 159 268.5C159 268.5 163.509 269.5 168 269.5C169.757 269.5 172.767 270.706 174.5 271Z" fill="url(#paint21_linear)"/>
<path d="M174.5 271C177.773 271.556 181.5 272.5 182.5 272.5C183.5 272.5 184.634 272.545 186 272.5C191.743 272.312 200.5 270 200.5 270H207.5L211.5 277V280.5L200 280L197 284.5L185 289.5C185 289.5 164.5 282 157 278.5C149.5 275 136.5 280 136.5 280C136.5 280 142.758 271.51 149.5 270C153.125 269.188 159 268.5 159 268.5C159 268.5 163.509 269.5 168 269.5C169.757 269.5 172.767 270.706 174.5 271Z" stroke="url(#paint22_linear)" stroke-width="0.5"/>
<path d="M345 157C351 156.167 363.6 153.8 366 151L389 157C389 157 396 163 399 177C408.534 221.49 381 287.5 359 311C352.861 317.557 332.5 319.5 332.5 319.5L286.5 324.5L196.5 322.5C193 321.167 186 317.5 186 313.5V300.5V289.5L196.5 279L207.5 276L238 282.5L270 279H299L318 266L325 240.5L328.5 215.5L335 188L345 157Z" fill="#735F43"/>
<path d="M345 157C351 156.167 363.6 153.8 366 151L389 157C389 157 396 163 399 177C408.534 221.49 381 287.5 359 311C352.861 317.557 332.5 319.5 332.5 319.5L286.5 324.5L196.5 322.5C193 321.167 186 317.5 186 313.5V300.5V289.5L196.5 279L207.5 276L238 282.5L270 279H299L318 266L325 240.5L328.5 215.5L335 188L345 157Z" fill="url(#paint23_radial)"/>
<path d="M345 157C351 156.167 363.6 153.8 366 151L389 157C389 157 396 163 399 177C408.534 221.49 381 287.5 359 311C352.861 317.557 332.5 319.5 332.5 319.5L286.5 324.5L196.5 322.5C193 321.167 186 317.5 186 313.5V300.5V289.5L196.5 279L207.5 276L238 282.5L270 279H299L318 266L325 240.5L328.5 215.5L335 188L345 157Z" fill="url(#paint24_linear)"/>
<path d="M345 157C351 156.167 363.6 153.8 366 151L389 157C389 157 396 163 399 177C408.534 221.49 381 287.5 359 311C352.861 317.557 332.5 319.5 332.5 319.5L286.5 324.5L196.5 322.5C193 321.167 186 317.5 186 313.5V300.5V289.5L196.5 279L207.5 276L238 282.5L270 279H299L318 266L325 240.5L328.5 215.5L335 188L345 157Z" stroke="black"/>
<path d="M345 157C351 156.167 363.6 153.8 366 151L389 157C389 157 396 163 399 177C408.534 221.49 381 287.5 359 311C352.861 317.557 332.5 319.5 332.5 319.5L286.5 324.5L196.5 322.5C193 321.167 186 317.5 186 313.5V300.5V289.5L196.5 279L207.5 276L238 282.5L270 279H299L318 266L325 240.5L328.5 215.5L335 188L345 157Z" stroke="url(#paint25_radial)"/>
<path d="M408 718.5L439 707.5H451.5L481 718.5V723H408V718.5Z" fill="#C4C4C4"/>
<path d="M408 718.5L439 707.5H451.5L481 718.5V723H408V718.5Z" fill="url(#paint26_linear)"/>
<defs>
<linearGradient id="paint0_linear" x1="50" y1="370" x2="91" y2="370" gradientUnits="userSpaceOnUse">
<stop stop-color="#DEDEDE"/>
<stop offset="1" stop-color="white" stop-opacity="0"/>
</linearGradient>
<linearGradient id="paint1_linear" x1="31.5" y1="370" x2="90" y2="370" gradientUnits="userSpaceOnUse">
<stop stop-color="#C4C4C4"/>
<stop offset="1" stop-color="#C4C4C4" stop-opacity="0"/>
</linearGradient>
<linearGradient id="paint2_linear" x1="404" y1="676.5" x2="359" y2="656" gradientUnits="userSpaceOnUse">
<stop stop-color="#4999AA"/>
<stop offset="1" stop-color="white" stop-opacity="0"/>
</linearGradient>
<linearGradient id="paint3_linear" x1="187.798" y1="742.571" x2="178.334" y2="694.036" gradientUnits="userSpaceOnUse">
<stop stop-color="#4999AA"/>
<stop offset="1" stop-color="white" stop-opacity="0"/>
</linearGradient>
<linearGradient id="paint4_linear" x1="203" y1="366" x2="243" y2="366" gradientUnits="userSpaceOnUse">
<stop stop-color="#C4C4C4"/>
<stop offset="1" stop-color="#C4C4C4" stop-opacity="0"/>
</linearGradient>
<linearGradient id="paint5_linear" x1="190.264" y1="246.322" x2="307.905" y2="458.353" gradientUnits="userSpaceOnUse">
<stop stop-color="white"/>
<stop offset="1" stop-color="#4C6179"/>
</linearGradient>
<linearGradient id="paint6_linear" x1="213.951" y1="635.536" x2="13.0924" y2="493.098" gradientUnits="userSpaceOnUse">
<stop stop-color="#4D627A"/>
<stop offset="1" stop-color="white" stop-opacity="0"/>
</linearGradient>
<linearGradient id="paint7_linear" x1="386.707" y1="436.901" x2="189.937" y2="173.392" gradientUnits="userSpaceOnUse">
<stop stop-color="#4C6179"/>
<stop offset="1" stop-color="white"/>
</linearGradient>
<linearGradient id="paint8_linear" x1="184.624" y1="152.617" x2="325.767" y2="84.8607" gradientUnits="userSpaceOnUse">
<stop stop-color="#EED3C7"/>
<stop offset="1" stop-color="#F3CEBD"/>
</linearGradient>
<radialGradient id="paint9_radial" cx="0" cy="0" r="1" gradientUnits="userSpaceOnUse" gradientTransform="translate(274.144 132.621) rotate(-168.872) scale(18.5068 21.6254)">
<stop stop-color="#F4CFBF" stop-opacity="0.52"/>
<stop offset="1" stop-color="#A58174"/>
</radialGradient>
<radialGradient id="paint10_radial" cx="0" cy="0" r="1" gradientUnits="userSpaceOnUse" gradientTransform="translate(267.83 125.609) rotate(87.4882) scale(18.5068 21.6254)">
<stop stop-color="#F4CFBF" stop-opacity="0.52"/>
<stop offset="1" stop-color="#A58174"/>
</radialGradient>
<radialGradient id="paint11_radial" cx="0" cy="0" r="1" gradientUnits="userSpaceOnUse" gradientTransform="translate(306.471 89.4997) rotate(111.362) scale(16.6508 9.92015)">
<stop stop-color="#D8A098"/>
<stop offset="1" stop-color="#F4CFBF"/>
</radialGradient>
<linearGradient id="paint12_linear" x1="320.86" y1="95.579" x2="293.842" y2="98.8282" gradientUnits="userSpaceOnUse">
<stop stop-color="#D19C91"/>
<stop offset="1" stop-color="#F4CFBF"/>
</linearGradient>
<linearGradient id="paint13_linear" x1="258.255" y1="391.722" x2="290.327" y2="391.722" gradientUnits="userSpaceOnUse">
<stop stop-color="#DEDEDE"/>
<stop offset="1" stop-color="white"/>
</linearGradient>
<linearGradient id="paint14_linear" x1="445.618" y1="504.988" x2="460.509" y2="504.988" gradientUnits="userSpaceOnUse">
<stop stop-color="#A4A4A4"/>
<stop offset="1" stop-color="#F2EDED"/>
</linearGradient>
<radialGradient id="paint15_radial" cx="0" cy="0" r="1" gradientUnits="userSpaceOnUse" gradientTransform="translate(444.5 462.5) rotate(78.6901) scale(28.0446 110.911)">
<stop stop-color="#737373"/>
<stop offset="1" stop-color="#565555" stop-opacity="0"/>
</radialGradient>
<radialGradient id="paint16_radial" cx="0" cy="0" r="1" gradientUnits="userSpaceOnUse" gradientTransform="translate(430 652) rotate(113.841) scale(23.9724 32.6494)">
<stop stop-color="white"/>
<stop offset="1" stop-color="white" stop-opacity="0"/>
</radialGradient>
<linearGradient id="paint17_linear" x1="340" y1="149" x2="320.5" y2="145.5" gradientUnits="userSpaceOnUse">
<stop stop-color="#7D6749"/>
<stop offset="1" stop-color="#9B8A72"/>
</linearGradient>
<linearGradient id="paint18_linear" x1="501" y1="226" x2="378.5" y2="235" gradientUnits="userSpaceOnUse">
<stop stop-color="#67563E"/>
<stop offset="1" stop-color="#7E694C"/>
</linearGradient>
<radialGradient id="paint19_radial" cx="0" cy="0" r="1" gradientUnits="userSpaceOnUse" gradientTransform="translate(216 186) rotate(5.2624) scale(114.483 120.782)">
<stop stop-color="#C2A172"/>
<stop offset="1" stop-color="#735F43"/>
</radialGradient>
<linearGradient id="paint20_linear" x1="146.357" y1="271.819" x2="157.825" y2="295.338" gradientUnits="userSpaceOnUse">
<stop stop-color="#FFE2D6"/>
<stop offset="1" stop-color="#F2BFA9"/>
</linearGradient>
<linearGradient id="paint21_linear" x1="164" y1="259" x2="175.25" y2="284.5" gradientUnits="userSpaceOnUse">
<stop stop-color="#F5E1D8"/>
<stop offset="1" stop-color="#F2BFA9"/>
</linearGradient>
<linearGradient id="paint22_linear" x1="174.5" y1="268" x2="107" y2="252.5" gradientUnits="userSpaceOnUse">
<stop stop-color="#DEAE9A"/>
<stop offset="1" stop-color="#F2BFA9" stop-opacity="0"/>
</linearGradient>
<radialGradient id="paint23_radial" cx="0" cy="0" r="1" gradientUnits="userSpaceOnUse" gradientTransform="translate(199.5 198.5) rotate(25.449) scale(172.21 215.706)">
<stop stop-color="#AD9B81"/>
<stop offset="1" stop-color="#735F43"/>
</radialGradient>
<linearGradient id="paint24_linear" x1="587.5" y1="269.5" x2="372" y2="215" gradientUnits="userSpaceOnUse">
<stop/>
<stop offset="1" stop-opacity="0"/>
</linearGradient>
<radialGradient id="paint25_radial" cx="0" cy="0" r="1" gradientUnits="userSpaceOnUse" gradientTransform="translate(441 316.5) rotate(-168.232) scale(220.638 276.365)">
<stop/>
<stop offset="1" stop-color="#AA9E8D"/>
</radialGradient>
<linearGradient id="paint26_linear" x1="444.5" y1="707.5" x2="444.5" y2="726" gradientUnits="userSpaceOnUse">
<stop stop-color="#DCDCDC"/>
<stop offset="1" stop-color="white" stop-opacity="0"/>
</linearGradient>
</defs>
</svg>
