<svg width="432" height="812" viewBox="0 0 432 812" fill="none" xmlns="http://www.w3.org/2000/svg">
<path d="M35 427.5L43 404.5L75.5 413.5V444L70 455L66 467L55.5 482.5C55.5 484.167 54.9 487.5 52.5 487.5H50C50 487.5 47.0391 486.153 46 484.5C45.23 483.275 45.339 481.601 45.7683 480H40C40 480 38.7643 480.161 38 480C34.29 479.219 40 470.5 40 470.5L35 475C35 475 32.5789 475.839 31.5 475C30.1128 473.921 31.5 472.257 31.5 470.5V462C29.1667 464.667 22.5 470.5 22.5 470.5C22.5 470.5 24.5 461 24.5 459.5L29 447L35 427.5Z" fill="#F5D6C8"/>
<path d="M16.9625 777.366L18.3276 758L53.4929 764.828L58.5467 785.842C58.5467 785.842 44.5056 787.803 35.7401 785.842C28.6628 784.258 16.9625 777.366 16.9625 777.366Z" fill="#EDBFBB"/>
<path d="M16.3301 774.991C17.2666 775.169 18.2711 776.799 18.2711 776.799C18.2711 776.799 28.7145 784.27 36.7105 785.842C44.7676 787.425 57.5762 784.636 57.5762 784.636C57.5762 784.636 113.865 796.693 115.321 797.898C116.776 799.104 115.903 803.927 116.291 805.735C116.679 807.543 111.924 807.877 105.616 808.749C68.5128 813.876 10.0219 808.749 10.0219 808.749C10.0219 808.749 9.97266 805.442 10.0219 803.324C10.2718 792.568 11.9629 777.435 13.9039 776.196C13.9039 776.196 15.3214 774.798 16.3301 774.991Z" fill="#9EDCEA"/>
<path d="M16.3301 774.991C17.2666 775.169 18.2711 776.799 18.2711 776.799C18.2711 776.799 28.7145 784.27 36.7105 785.842C44.7676 787.425 57.5762 784.636 57.5762 784.636C57.5762 784.636 113.865 796.693 115.321 797.898C116.776 799.104 115.903 803.927 116.291 805.735C116.679 807.543 111.924 807.877 105.616 808.749C68.5128 813.876 10.0219 808.749 10.0219 808.749C10.0219 808.749 9.97266 805.442 10.0219 803.324C10.2718 792.568 11.9629 777.435 13.9039 776.196C13.9039 776.196 15.3214 774.798 16.3301 774.991Z" fill="url(#paint0_linear)"/>
<path d="M10.0217 808.749V799.707L92.0286 803.324L116.291 802.118V807.544L95.4254 810.558C95.4254 810.558 69.6931 810.899 53.2088 810.558C36.336 810.209 10.0217 808.749 10.0217 808.749Z" fill="white" stroke="#666666" stroke-width="0.5"/>
<path d="M94.7986 793.092L57.4588 784.667L51.2664 786.296C51.2664 786.296 54.39 790.339 57.2873 790.768C72.9984 793.094 81.9091 795.352 93.0099 795.501C94.5718 795.521 94.7986 793.092 94.7986 793.092Z" fill="#FEFBFB"/>
<path d="M91.9791 790.998L58.0952 783.206L52.4905 784.647C52.4905 784.647 55.3412 788.315 57.9693 788.717C72.2204 790.894 80.3075 792.978 90.3695 793.165C91.7853 793.192 91.9791 790.998 91.9791 790.998Z" fill="#CBCBCB"/>
<path d="M189.5 256.5L199 240L207.5 278L212.5 323C212.5 335.887 210.5 340.613 210.5 353.5C210.5 366.387 204.84 374.404 203 384.5C201.249 394.105 199 403.5 199 403.5L174.5 408.5L189.5 380.5L186.5 304.5L192.5 273.5L189.5 256.5Z" fill="#262F30" stroke="black"/>
<path d="M220 299C218.784 288.995 207.5 278.5 207.5 278.5L210.5 357L230.5 375.5H240.5H248L258 384.5H275L285.5 357.5C285.5 357.5 276.367 348.957 270.5 343.5C267.768 340.959 265.941 339.821 263.5 337C261.019 334.133 262 334 258.5 332C255 330 251 331.5 248 329C245.763 327.136 240.333 319.833 237 317C233.667 314.167 235.119 307.888 230.5 306C227.608 304.818 223.5 304.5 223.5 304.5C223.5 304.5 220.306 301.52 220 299Z" fill="#856D4A"/>
<path d="M274.5 382.249L284.5 356.5L295.5 360L311 370L321 373L339 391.5L338 409L335.5 411.5L332 410.5V414L330 419.5C329 419.5 326.9 419.3 326.5 418.5C326.1 417.7 324.333 417.167 323.5 417L321 420.5L315.5 419.5V415.5L317.5 412.5L315.5 404H314.5V415.5L311 419.5L307.5 417L306.5 412.5L302 409L299 406L274.5 382.249Z" fill="#F4D0C1"/>
<path d="M73.95 462.267L81.8286 440.591L77.1799 418.147L108 408.5L129.013 430.767L138 462.267L142.365 493.032L121.452 548.386L115.767 576.772L87.0807 622.754L80.1615 677.704L62.3932 738.047C63.8155 752.682 65.3315 780.973 60.0166 777.062C54.7017 773.151 25.3087 770.349 11.2766 769.436C13.4286 757.333 17.7133 732.449 17.6352 729.742C17.5572 727.035 20.5495 692.029 22.0555 674.864C25.7163 657.261 32.9828 620.137 32.7617 612.467C32.5405 604.797 42.0258 586.8 46.7961 578.76L56.7996 544.041L70.7647 490.581L73.95 462.267Z" fill="#4C6179"/>
<path d="M329.481 774.903L319.949 757.989L353.058 744.311L368.853 759.063C368.853 759.063 358.216 768.436 349.821 771.629C343.042 774.207 329.481 774.903 329.481 774.903Z" fill="#EDBFBB"/>
<path d="M327.644 773.269C328.524 772.902 330.26 773.708 330.26 773.708C330.26 773.708 343.092 774.188 350.631 771.094C358.227 767.977 367.379 758.592 367.379 758.592C367.379 758.592 420.996 737.639 422.875 737.843C424.754 738.047 426.682 742.552 428.003 743.848C429.323 745.143 425.539 748.042 420.755 752.245C392.617 776.967 340.98 804.916 340.98 804.916C340.98 804.916 339.117 802.183 337.991 800.388C332.273 791.275 325.346 777.714 326.284 775.612C326.284 775.612 326.697 773.664 327.644 773.269Z" fill="#9EDCEA"/>
<path d="M327.644 773.269C328.524 772.902 330.26 773.708 330.26 773.708C330.26 773.708 343.092 774.188 350.631 771.094C358.227 767.977 367.379 758.592 367.379 758.592C367.379 758.592 420.996 737.639 422.875 737.843C424.754 738.047 426.682 742.552 428.003 743.848C429.323 745.143 425.539 748.042 420.755 752.245C392.617 776.967 340.98 804.916 340.98 804.916C340.98 804.916 339.117 802.183 337.991 800.388C332.273 791.275 325.346 777.714 326.284 775.612C326.284 775.612 326.697 773.664 327.644 773.269Z" fill="url(#paint1_linear)"/>
<path d="M340.98 804.916L335.998 797.37L406.427 755.204L426.01 740.83L428.999 745.357L413.247 759.369C413.247 759.369 391.961 773.832 378.017 782.63C363.744 791.635 340.98 804.916 340.98 804.916Z" fill="white" stroke="#666666" stroke-width="0.5"/>
<path d="M403.101 745.139L367.298 758.682L363.028 763.453C363.028 763.453 367.862 765.106 370.516 763.868C384.909 757.152 393.59 754.127 402.935 748.135C404.25 747.291 403.101 745.139 403.101 745.139Z" fill="#FEFBFB"/>
<path d="M399.594 744.945L367.024 757.112L363.141 761.403C363.141 761.403 367.541 762.893 369.956 761.78C383.048 755.745 390.945 753.028 399.445 747.641C400.641 746.882 399.594 744.945 399.594 744.945Z" fill="#CBCBCB"/>
<path d="M110.788 445.511L108.215 416.937L109.438 414.967L130.914 407.544L145.649 408.826L170.093 405.911L197.105 403.003L216.343 442.04L245.794 509.641L260.899 530.329L272.507 550.218L284.485 589.513L293.145 609.145L291.455 627.581L307.427 643.303L323.289 678.487L332.194 692.013L348.27 728.995L355.909 735.986L357.267 747.372L337.73 758.819L322.149 766.755L315.683 761.449C310.529 753.554 299.861 737.2 298.425 734.94C296.989 732.68 293.841 722.317 292.447 717.418L274.2 698.929L263.143 679.582L250.392 650.104L238.713 629.616L226.962 608.529L215.09 590.495L198.647 562.673C185.143 547.265 157.925 515.501 157.084 511.711C156.243 507.922 140.197 491.034 132.28 483.063L110.788 445.511Z" fill="#596A7D"/>
<path d="M110.788 445.511L108.215 416.937L109.438 414.967L130.914 407.544L145.649 408.826L170.093 405.911L197.105 403.003L216.343 442.04L245.794 509.641L260.899 530.329L272.507 550.218L284.485 589.513L293.145 609.145L291.455 627.581L307.427 643.303L323.289 678.487L332.194 692.013L348.27 728.995L355.909 735.986L357.267 747.372L337.73 758.819L322.149 766.755L315.683 761.449C310.529 753.554 299.861 737.2 298.425 734.94C296.989 732.68 293.841 722.317 292.447 717.418L274.2 698.929L263.143 679.582L250.392 650.104L238.713 629.616L226.962 608.529L215.09 590.495L198.647 562.673C185.143 547.265 157.925 515.501 157.084 511.711C156.243 507.922 140.197 491.034 132.28 483.063L110.788 445.511Z" fill="url(#paint2_linear)"/>
<path d="M124 129L153 132L168 156C168 156 173.401 160.094 175.5 163C182 172 177.894 175.615 184.5 181.5C187.828 184.465 189.52 186.186 192.5 189.5C197.393 194.943 196.879 198.207 197.5 205.5C198.196 213.671 197.5 226.5 197.5 226.5L202 244.5L194.5 258.5V277.5L189 303.5V330.5V385.5L184.5 394.5L176 412L135.5 409L107.5 416L78.5 426.5V412L43 405L46.5 389L65 378.5C63.5 377.667 60.5 375.1 60.5 371.5C60.5 367.9 56.5 364.667 54.5 363.5L60.5 348.5V326.5L72.5 296L71 277.5V251.5V226.5V205.5L78.5 181.5L84 167L93 149.5L107.5 136L124 129Z" fill="#6F5B3F"/>
<path d="M124 129L153 132L168 156C168 156 173.401 160.094 175.5 163C182 172 177.894 175.615 184.5 181.5C187.828 184.465 189.52 186.186 192.5 189.5C197.393 194.943 196.879 198.207 197.5 205.5C198.196 213.671 197.5 226.5 197.5 226.5L202 244.5L194.5 258.5V277.5L189 303.5V330.5V385.5L184.5 394.5L176 412L135.5 409L107.5 416L78.5 426.5V412L43 405L46.5 389L65 378.5C63.5 377.667 60.5 375.1 60.5 371.5C60.5 367.9 56.5 364.667 54.5 363.5L60.5 348.5V326.5L72.5 296L71 277.5V251.5V226.5V205.5L78.5 181.5L84 167L93 149.5L107.5 136L124 129Z" fill="url(#paint3_linear)"/>
<path d="M122.5 114L119.5 130.5H128.5L149 132.5L159.5 143.5L169 156.5L182.5 124L197.5 116.5L201 113.5L203.5 109L202.5 106.5L200.5 104L202.5 101H205L205.5 99.5V98L202.5 95L208 91L206.5 84.5H208L214.5 81V77.5L205 61V57.5V50L202.5 40L196.5 28.5L205 22V10.5L196.5 4.5L181 0L174 1.5L166 7L158.5 10.5L148.5 7L136.5 9L125 18L112.5 36L110 50V70.5L114.5 87L119.5 93.5L122.5 107.5V114Z" fill="#F4CFBF"/>
<path d="M122.5 114L119.5 130.5H128.5L149 132.5L159.5 143.5L169 156.5L182.5 124L197.5 116.5L201 113.5L203.5 109L202.5 106.5L200.5 104L202.5 101H205L205.5 99.5V98L202.5 95L208 91L206.5 84.5H208L214.5 81V77.5L205 61V57.5V50L202.5 40L196.5 28.5L205 22V10.5L196.5 4.5L181 0L174 1.5L166 7L158.5 10.5L148.5 7L136.5 9L125 18L112.5 36L110 50V70.5L114.5 87L119.5 93.5L122.5 107.5V114Z" fill="url(#paint4_linear)"/>
<path d="M133 100L123 106L120 94.5C119 94 117 92.8 117 92C117 91.2 114.667 86.6667 113.5 84.5L109.5 72.5L108.5 53.5L111.5 38C113.333 35.5 117 30.1 117 28.5C117 26.9 123 20.5 126 17.5L135 10L146 6L159.5 11L170 2.5L180 0L194.5 2.5L205.5 10V23L196.5 30.5C195.833 29.8333 194.5 28.1 194.5 26.5C194.5 24.9 189.5 23.5 187 23L182 22L176.5 19L172.5 23L174 28.5L177.5 34.5L181 38L177.5 44.5L176.5 53.5V60.5L175 67H168.5L160.5 63.5L155.5 60.5L149 63.5L142.5 70.5L140 81V89L133 100Z" fill="#422826"/>
<path d="M197.5 62L194.5 60.5V60L198 58.5C198 58.5 198.334 58.7791 198.5 59C199.328 60.1046 198 62.5 198 62.5L197.5 62Z" fill="white"/>
<path d="M193 62L194 60L196 59L197.5 58.5L199.5 57C199.5 57.3333 199.6 58 200 58" stroke="#AA8478"/>
<path d="M198.556 98.8611L198.5 99H198L198.556 98.8611L199.5 96.5C199.887 95.5321 200.357 95.3076 200.984 95.0078L201 95C201.557 94.7336 201.889 94.9127 202.5 95C203.32 95.1171 203.513 95.83 204 96.5C204.514 97.2062 205.427 97.6298 205.5 98.5C205.587 99.5479 205.55 101.062 204.5 101C204.064 100.974 203 100.5 203 100.5L203.5 98.5C203.5 98.1667 203.4 97.5 203 97.5C202.5 97.5 201.5 96.5 201 97C200.717 97.2828 200.333 98.1667 200 98.5L198.556 98.8611Z" fill="url(#paint5_radial)"/>
<path d="M204.99 87.0053C204.95 86.9808 204.909 86.954 204.868 86.9244L204.986 86.4385L204.99 87.0053C205.768 87.4846 206.201 87.0349 207 88C207.839 89.0143 207.755 89.6418 207.901 90.3307C208.028 90.9348 208.1 91.5142 207.547 91.7884C206.797 92.1602 206.502 92.5768 205.736 92.8924C204.928 93.225 203.057 95.1961 202.194 95.0613C201.155 94.8991 199.693 94.5055 200 93.5C200.128 93.0825 200.84 92.1602 200.84 92.1602L203.91 91.9348C204 91.5 204.406 91.8887 204.5 91.5C204.618 91.0141 206.325 90.4629 205.957 89.8591C205.749 89.5175 205.245 88.9025 205 88.5L204.99 87.0053Z" fill="url(#paint6_radial)"/>
<path d="M155 62.5C157.737 62.9613 160 65 160.5 67.5C160.984 69.9219 156.168 63.746 155 66C154.461 67.0403 155.11 67.5299 155 68.5C154.839 69.9125 156.178 69.5897 156 71C155.853 72.1623 154.439 73.9137 154 75C153.371 76.5575 152 76 152 76.5C152 77 151.593 76.9776 152.5 78C153.834 79.5037 154.833 75 156 76C157.167 77 158.2 81.9 159 81.5C160 81 161.325 80.6028 161.5 82C161.623 82.9879 160.891 85.2426 160.5 87C160.109 88.7573 162.93 91.1018 162.5 92C161.904 93.2456 158 92.5 158 92.5C158 92.5 155.712 90.4389 154 89.5C151.834 88.3124 150.39 87.5904 148.5 86C146.086 83.9687 144.739 80.9073 144.5 77.5C144.361 75.5136 144.54 73.8058 145 71.5C145.653 68.2279 147.875 66.5591 150.5 64.5C153.13 62.4373 152.673 62.1079 155 62.5Z" fill="url(#paint7_radial)" fill-opacity="0.8"/>
<path d="M155 62.5C157.737 62.9613 160 65 160.5 67.5C160.984 69.9219 156.168 63.746 155 66C154.461 67.0403 155.11 67.5299 155 68.5C154.839 69.9125 156.178 69.5897 156 71C155.853 72.1623 154.439 73.9137 154 75C153.371 76.5575 152 76 152 76.5C152 77 151.593 76.9776 152.5 78C153.834 79.5037 154.833 75 156 76C157.167 77 158.2 81.9 159 81.5C160 81 161.325 80.6028 161.5 82C161.623 82.9879 160.891 85.2426 160.5 87C160.109 88.7573 162.93 91.1018 162.5 92C161.904 93.2456 158 92.5 158 92.5C158 92.5 155.712 90.4389 154 89.5C151.834 88.3124 150.39 87.5904 148.5 86C146.086 83.9687 144.739 80.9073 144.5 77.5C144.361 75.5136 144.54 73.8058 145 71.5C145.653 68.2279 147.875 66.5591 150.5 64.5C153.13 62.4373 152.673 62.1079 155 62.5Z" stroke="#C3877E" stroke-width="0.4"/>
<path d="M155 62.5C157.737 62.9613 160 65 160.5 67.5C160.984 69.9219 156.168 63.746 155 66C154.461 67.0403 155.11 67.5299 155 68.5C154.839 69.9125 156.178 69.5897 156 71C155.853 72.1623 154.439 73.9137 154 75C153.371 76.5575 152 76 152 76.5C152 77 151.593 76.9776 152.5 78C153.834 79.5037 154.833 75 156 76C157.167 77 158.2 81.9 159 81.5C160 81 161.325 80.6028 161.5 82C161.623 82.9879 160.891 85.2426 160.5 87C160.109 88.7573 162.93 91.1018 162.5 92C161.904 93.2456 158 92.5 158 92.5C158 92.5 155.712 90.4389 154 89.5C151.834 88.3124 150.39 87.5904 148.5 86C146.086 83.9687 144.739 80.9073 144.5 77.5C144.361 75.5136 144.54 73.8058 145 71.5C145.653 68.2279 147.875 66.5591 150.5 64.5C153.13 62.4373 152.673 62.1079 155 62.5Z" stroke="url(#paint8_linear)" stroke-width="0.4"/>
<path d="M155 65.5C154.167 65.6667 153.746 65.6962 153 66C151.333 66.6792 150.833 68 149.5 69C148.5 70 148 71 147.5 72.5C147.247 73.2589 147 77 147 77C147 77 147.305 79.1332 147.5 80.5C147.5 80.5 148.023 81.7685 148.5 82.5C149.634 84.2387 151.333 85.3333 152.5 86C153.667 86.6667 156.5 88 156.5 88C156.5 88 157.667 88 158 88C158.333 88 159.413 86.6352 159.5 85.5C159.6 84.194 159.105 83.2032 158 82.5C156.847 81.7662 155.858 82.6558 154.5 82.5C153.511 82.3865 152.84 82.534 152 82C151.176 81.4764 150.902 80.8895 150.5 80C150.168 79.2665 150.038 78.8042 150 78C149.953 77.0055 149.889 76.2859 150.5 75.5C150.932 74.9443 152 74.5 152 74.5C152.781 74.1095 153.219 73.8905 154 73.5C154.781 73.1095 154.318 72.0455 155 71.5C155.341 71.2272 156 71 156 71" stroke="#945F56" stroke-width="0.1"/>
<path d="M208 83C207.296 83 207.2 82.0711 206.5 82C205.886 81.9377 205 82.5 205 82.5C205 82.5 206.605 79.5994 208 80C208.938 80.2695 209.825 81.0794 209.5 82C209.266 82.6639 208.704 83 208 83Z" fill="#B38A7F"/>
<path d="M204.5 83.5L205 82.5M205 82.5C205 82.5 205.886 81.9377 206.5 82C207.2 82.0711 207.296 83 208 83C208.704 83 209.266 82.6639 209.5 82C209.825 81.0794 208.938 80.2695 208 80C206.605 79.5994 205 82.5 205 82.5Z" stroke="#C0978C" stroke-width="0.3"/>
<path d="M196 49.5C194.975 50.5773 194.5 53 194.5 53C194.5 53 198.479 50.7509 200.5 52C201.205 52.4356 201.377 52.9536 202 53.5C202.734 54.144 203.069 55.2951 204 55C204.526 54.8331 205 54 205 54V49C205 49 204.463 48.3017 204 48C203.166 47.4561 202.495 47.5321 201.5 47.5C200.313 47.4617 199.613 47.5852 198.5 48C197.433 48.3977 196.785 48.6751 196 49.5Z" fill="#553832"/>
<path d="M85.5 196.5L74 236.5L69.9999 252.5L58.5 293.5L48.4999 326.5C48.1666 334.667 47 351.4 45 353C43 354.6 44.1667 358.667 45 360.5V365L41.5 374.5L46.5 389L41.5 404.5L74 412.5L81.5 408.5L85.5 396.5V376.5L95 360.5C96.8333 350 100.9 328.5 102.5 326.5C104.1 324.5 111.167 311.833 110.5 306.5L114.5 283.5L123 265.5L133 244L145 216.5L152 192.5C154.167 185.833 158 171.9 156 169.5C154 167.1 156.833 162.5 158.5 160.5L152 147L142 139L126 134.5L110.5 147L95 169.5L85.5 196.5Z" fill="#6F5B3F"/>
<path d="M85.5 196.5L74 236.5L69.9999 252.5L58.5 293.5L48.4999 326.5C48.1666 334.667 47 351.4 45 353C43 354.6 44.1667 358.667 45 360.5V365L41.5 374.5L46.5 389L41.5 404.5L74 412.5L81.5 408.5L85.5 396.5V376.5L95 360.5C96.8333 350 100.9 328.5 102.5 326.5C104.1 324.5 111.167 311.833 110.5 306.5L114.5 283.5L123 265.5L133 244L145 216.5L152 192.5C154.167 185.833 158 171.9 156 169.5C154 167.1 156.833 162.5 158.5 160.5L152 147L142 139L126 134.5L110.5 147L95 169.5L85.5 196.5Z" fill="url(#paint9_linear)"/>
<path d="M198.5 60.5V59C198.5 59 198.7 59.5 198.7 60C198.7 60.8051 198.5 61.5 198.5 61.5V60.5Z" fill="black" stroke="black" stroke-width="0.1"/>
<defs>
<linearGradient id="paint0_linear" x1="61.3268" y1="820.549" x2="71.7008" y2="772.2" gradientUnits="userSpaceOnUse">
<stop stop-color="#4999AA"/>
<stop offset="1" stop-color="white" stop-opacity="0"/>
</linearGradient>
<linearGradient id="paint1_linear" x1="390.297" y1="786.495" x2="372.314" y2="740.431" gradientUnits="userSpaceOnUse">
<stop stop-color="#4999AA"/>
<stop offset="1" stop-color="white" stop-opacity="0"/>
</linearGradient>
<linearGradient id="paint2_linear" x1="-189" y1="467.5" x2="336" y2="455.5" gradientUnits="userSpaceOnUse">
<stop offset="0.518709" stop-color="#4C6179"/>
<stop offset="0.827419" stop-color="#63788E"/>
</linearGradient>
<linearGradient id="paint3_linear" x1="320" y1="296" x2="151" y2="289.5" gradientUnits="userSpaceOnUse">
<stop stop-color="#A79173"/>
<stop offset="1" stop-color="#6F5B3F"/>
</linearGradient>
<linearGradient id="paint4_linear" x1="290" y1="73.5" x2="133.5" y2="78" gradientUnits="userSpaceOnUse">
<stop stop-color="#EED3C7"/>
<stop offset="1" stop-color="#F3CEBD"/>
</linearGradient>
<radialGradient id="paint5_radial" cx="0" cy="0" r="1" gradientUnits="userSpaceOnUse" gradientTransform="translate(201.5 99) rotate(-38.4181) scale(18.5068 21.6254)">
<stop stop-color="#F4CFBF" stop-opacity="0.52"/>
<stop offset="1" stop-color="#A58174"/>
</radialGradient>
<radialGradient id="paint6_radial" cx="0" cy="0" r="1" gradientUnits="userSpaceOnUse" gradientTransform="translate(203.896 89.8733) rotate(65.2213) scale(18.5068 21.6254)">
<stop stop-color="#F4CFBF" stop-opacity="0.52"/>
<stop offset="1" stop-color="#A58174"/>
</radialGradient>
<radialGradient id="paint7_radial" cx="0" cy="0" r="1" gradientUnits="userSpaceOnUse" gradientTransform="translate(153 75.5) rotate(41.3478) scale(16.6508 9.92015)">
<stop stop-color="#D8A098"/>
<stop offset="1" stop-color="#F4CFBF"/>
</radialGradient>
<linearGradient id="paint8_linear" x1="143" y1="87.5" x2="168.5" y2="78" gradientUnits="userSpaceOnUse">
<stop stop-color="#D19C91"/>
<stop offset="1" stop-color="#F4CFBF"/>
</linearGradient>
<linearGradient id="paint9_linear" x1="286.5" y1="339" x2="55" y2="253" gradientUnits="userSpaceOnUse">
<stop offset="0.015625"/>
<stop offset="0.880208" stop-opacity="0"/>
</linearGradient>
</defs>
</svg>
