<svg width="509" height="533" viewBox="0 0 509 533" fill="none" xmlns="http://www.w3.org/2000/svg">
<path d="M180.384 284.053V226.599L212.622 258.199L228.581 264.263H241.987L268.48 253.73L295.291 222.131L301.356 264.263L315.4 273.839L301.356 313.099L284.439 338.315L271.352 343.422L265.926 361.616L251.882 373.106L223.474 381.405L198.577 367.361L212.622 349.806L201.769 313.099L180.384 284.053Z" fill="#EEBEA8"/>
<path d="M180.384 284.053V226.599L212.622 258.199L228.581 264.263H241.987L268.48 253.73L295.291 222.131L301.356 264.263L315.4 273.839L301.356 313.099L284.439 338.315L271.352 343.422L265.926 361.616L251.882 373.106L223.474 381.405L198.577 367.361L212.622 349.806L201.769 313.099L180.384 284.053Z" fill="url(#paint0_radial)"/>
<path d="M161.232 135.95C163.062 136.335 168.893 152.228 168.893 152.228C168.893 152.228 170.489 63.7622 174 61.2599C181.132 56.1767 185.131 54.371 193.47 51.3651C210.27 45.3092 238.795 44.6621 238.795 44.6621C238.795 44.6621 269.437 44.3129 273.906 45.9389C280.928 48.494 302.313 72.1123 306.782 83.2839C307.967 86.2471 308.059 157.335 308.059 157.335L314.762 144.249C314.762 144.249 324.808 111.63 323.699 90.306C323.088 78.5591 310.792 56.4811 309.655 55.5145C296.887 44.6621 296.887 29.0219 296.887 29.0219L285.716 32.2138C285.716 32.2138 289.829 25.5203 285.716 23.2765C281.602 21.0328 283.481 22.6382 282.205 20.723C280.928 18.8079 279.013 9.87066 279.013 9.87066L273.906 13.7009C273.906 13.7009 262.2 4.76365 258.585 4.76365H249.328C245.713 4.76365 245.761 1.56867 242.944 0.614208C239.285 -0.626202 236.905 0.352425 233.05 0.614208C225.171 1.14916 220.926 6.65629 213.26 4.76365C209.634 3.86834 208.032 5.20604 204.323 4.76365C195.129 3.66713 193.47 16.8928 188.363 17.8504C185.767 18.3371 185.171 16.4285 181.98 15.616C171.724 13.0052 161.232 32.2138 161.232 32.2138L156.445 134.992C156.445 134.992 159.403 135.565 161.232 135.95Z" fill="#251C1F"/>
<path d="M161.232 135.95C163.062 136.335 168.893 152.228 168.893 152.228C168.893 152.228 170.489 63.7622 174 61.2599C181.132 56.1767 185.131 54.371 193.47 51.3651C210.27 45.3092 238.795 44.6621 238.795 44.6621C238.795 44.6621 269.437 44.3129 273.906 45.9389C280.928 48.494 302.313 72.1123 306.782 83.2839C307.967 86.2471 308.059 157.335 308.059 157.335L314.762 144.249C314.762 144.249 324.808 111.63 323.699 90.306C323.088 78.5591 310.792 56.4811 309.655 55.5145C296.887 44.6621 296.887 29.0219 296.887 29.0219L285.716 32.2138C285.716 32.2138 289.829 25.5203 285.716 23.2765C281.602 21.0328 283.481 22.6382 282.205 20.723C280.928 18.8079 279.013 9.87066 279.013 9.87066L273.906 13.7009C273.906 13.7009 262.2 4.76365 258.585 4.76365H249.328C245.713 4.76365 245.761 1.56867 242.944 0.614208C239.285 -0.626202 236.905 0.352425 233.05 0.614208C225.171 1.14916 220.926 6.65629 213.26 4.76365C209.634 3.86834 208.032 5.20604 204.323 4.76365C195.129 3.66713 193.47 16.8928 188.363 17.8504C185.767 18.3371 185.171 16.4285 181.98 15.616C171.724 13.0052 161.232 32.2138 161.232 32.2138L156.445 134.992C156.445 134.992 159.403 135.565 161.232 135.95Z" fill="url(#paint1_radial)" fill-opacity="0.3"/>
<path d="M168.574 148.079C168.574 148.079 168.815 105.113 171.446 76.9001C172.016 70.7871 171.925 62.5367 174 59.9832C176.593 56.7913 184.904 54.4026 193.47 51.3651C210.102 45.4679 220.531 45.5205 238.157 44.6621C252.732 43.9523 269.437 42.4278 275.502 45.9389C281.566 49.45 305.505 76.5809 307.42 82.9647C309.335 89.3484 307.42 161.485 307.42 161.485C307.42 161.485 300 201.5 294.972 223.088C292.896 232 268.479 254.049 268.479 254.049C268.479 254.049 252.442 263.319 241.029 264.583C236.074 265.131 233.19 265.342 228.262 264.583C220.964 263.458 210.706 257.561 210.706 257.561C197.244 244.098 177 226 177 223C177 220 168.574 148.079 168.574 148.079Z" fill="#F2C3AF"/>
<path d="M168.574 148.079C168.574 148.079 168.815 105.113 171.446 76.9001C172.016 70.7871 171.925 62.5367 174 59.9832C176.593 56.7913 184.904 54.4026 193.47 51.3651C210.102 45.4679 220.531 45.5205 238.157 44.6621C252.732 43.9523 269.437 42.4278 275.502 45.9389C281.566 49.45 305.505 76.5809 307.42 82.9647C309.335 89.3484 307.42 161.485 307.42 161.485C307.42 161.485 300 201.5 294.972 223.088C292.896 232 268.479 254.049 268.479 254.049C268.479 254.049 252.442 263.319 241.029 264.583C236.074 265.131 233.19 265.342 228.262 264.583C220.964 263.458 210.706 257.561 210.706 257.561C197.244 244.098 177 226 177 223C177 220 168.574 148.079 168.574 148.079Z" fill="url(#paint2_linear)" fill-opacity="0.6"/>
<path d="M263.373 104.031C257.206 102.875 252.52 113.607 252.52 113.607C252.52 113.607 259.104 112.374 263.373 112.011C271.449 111.323 284.12 112.649 284.12 112.649C284.12 112.649 286.071 113.214 287.312 113.607C291.109 114.807 296.887 117.118 296.887 117.118C296.887 117.118 290.059 105.946 283.801 105.946C273.906 105.946 273.587 105.946 263.373 104.031Z" fill="#422826"/>
<path d="M223.155 174.891C221.24 175.529 221.878 174.572 219.963 175.21C217.848 175.21 217.09 173.362 217.09 172.656C217.09 171.951 218.167 172.018 220.282 172.018C222.397 172.018 222.197 173.614 223.155 174.891Z" fill="url(#paint3_linear)"/>
<path d="M162.118 135.631L169.212 152.228L173.681 191.169H169.345L162.118 188.616L158.504 175.21L154.529 168.826V158.612C154.529 158.612 151.657 146.802 154.529 134.673C155.218 131.767 162.118 135.631 162.118 135.631Z" fill="#854435"/>
<path d="M162.118 135.631L169.212 152.228L173.681 191.169H169.345L162.118 188.616L158.504 175.21L154.529 168.826V158.612C154.529 158.612 151.657 146.802 154.529 134.673C155.218 131.767 162.118 135.631 162.118 135.631Z" fill="url(#paint4_linear)" fill-opacity="0.3"/>
<path d="M314.123 146.164L307.74 157.974L300.718 198.192L303.271 202.66L310.932 198.192L321.465 166.911L319.55 157.974V146.164H314.123Z" fill="#F4C4BA" stroke="#F5B4A2"/>
<path d="M181.022 283.734V263.306L172.085 268.413L170.17 282.138L149.103 290.756L138.57 296.501C138.57 296.501 79.3014 312.44 51.7509 337.996C37.4354 351.275 25.5775 365.446 20.7896 377.256C16.0018 389.066 12.8397 412.495 9.29889 435.348C3.47583 472.932 1 532.381 1 532.381H500.529C500.529 532.381 503.124 485.968 500.529 456.414C498.039 428.059 497.906 411.312 488.081 384.597C479.664 361.712 475.154 347.102 457.758 330.016C438.867 311.461 421.682 309.566 397.112 299.693C371.941 289.579 330.721 279.265 330.721 279.265L325.295 273.201L316.038 255.326L298.483 248.942L302.633 265.859L316.038 273.201L284.439 337.996L272.31 342.145L265.926 362.573L261.776 377.256L225.07 431.837L199.535 366.084L213.26 350.763L202.408 313.099L181.022 283.734Z" fill="#4D3E2B"/>
<path d="M181.022 283.734V263.306L172.085 268.413L170.17 282.138L149.103 290.756L138.57 296.501C138.57 296.501 79.3014 312.44 51.7509 337.996C37.4354 351.275 25.5775 365.446 20.7896 377.256C16.0018 389.066 12.8397 412.495 9.29889 435.348C3.47583 472.932 1 532.381 1 532.381H500.529C500.529 532.381 503.124 485.968 500.529 456.414C498.039 428.059 497.906 411.312 488.081 384.597C479.664 361.712 475.154 347.102 457.758 330.016C438.867 311.461 421.682 309.566 397.112 299.693C371.941 289.579 330.721 279.265 330.721 279.265L325.295 273.201L316.038 255.326L298.483 248.942L302.633 265.859L316.038 273.201L284.439 337.996L272.31 342.145L265.926 362.573L261.776 377.256L225.07 431.837L199.535 366.084L213.26 350.763L202.408 313.099L181.022 283.734Z" fill="url(#paint5_radial)"/>
<path d="M181.022 283.734V263.306L172.085 268.413L170.17 282.138L149.103 290.756L138.57 296.501C138.57 296.501 79.3014 312.44 51.7509 337.996C37.4354 351.275 25.5775 365.446 20.7896 377.256C16.0018 389.066 12.8397 412.495 9.29889 435.348C3.47583 472.932 1 532.381 1 532.381H500.529C500.529 532.381 503.124 485.968 500.529 456.414C498.039 428.059 497.906 411.312 488.081 384.597C479.664 361.712 475.154 347.102 457.758 330.016C438.867 311.461 421.682 309.566 397.112 299.693C371.941 289.579 330.721 279.265 330.721 279.265L325.295 273.201L316.038 255.326L298.483 248.942L302.633 265.859L316.038 273.201L284.439 337.996L272.31 342.145L265.926 362.573L261.776 377.256L225.07 431.837L199.535 366.084L213.26 350.763L202.408 313.099L181.022 283.734Z" stroke="#5D4D36"/>
<path d="M225.389 430.879L200.812 369.915L223.155 380.767L250.286 374.064L265.926 361.297L261.777 379.171L225.389 430.879Z" fill="black" stroke="black"/>
<path d="M294.334 338.315L296.887 343.741L291.142 338.315L294.334 323.632L291.142 319.802L296.887 313.738L300.079 319.802V327.143L294.334 338.315Z" fill="#594930" fill-opacity="0.79"/>
<path d="M229.538 533.02C229.538 533.02 229.935 519.61 231.773 508.442C233.508 497.9 235.14 482.099 235.284 471.416C235.444 459.496 234.18 459.028 235.284 447.158C237.402 424.385 251.707 415.441 263.372 395.769C275.7 374.98 296.887 343.741 296.887 343.741M296.887 343.741L294.334 338.315L300.079 327.143V319.802L296.887 313.738L291.142 319.802L294.334 323.632L291.142 338.315L296.887 343.741Z" stroke="black"/>
<path d="M225.07 429.603C225.07 429.603 215.749 446.42 213.898 456.415C212.355 464.749 214.279 469.652 213.898 478.119C212.939 499.431 205.28 532.062 205.28 532.062" stroke="black"/>
<path d="M298.164 345.337L305.186 350.763L309.016 337.038L320.826 312.142L330.083 285.33V277.988" stroke="black"/>
<path d="M169.531 281.819L164.743 294.586L174.638 338.953V345.975V352.04L189.959 336.719V328.42L194.747 318.206L199.535 315.653L206.238 325.867L213.26 349.167" stroke="black"/>
<path d="M304.867 337.038C304.867 339.33 304.891 341.188 302.952 341.188C301.037 339.911 300.079 339.592 298.802 337.038C298.802 334.747 299.097 333.208 301.037 333.208C302.976 333.208 304.867 334.747 304.867 337.038Z" fill="#C4C4C4"/>
<path d="M231.134 448.116C231.134 450.407 227.647 452.584 225.708 452.584C223.793 451.307 222.835 451.946 221.559 449.392C221.559 447.101 223.769 441.413 225.708 441.413C230.354 441.413 231.134 445.824 231.134 448.116Z" fill="#C4C4C4"/>
<path d="M224.112 533.658C222.197 533.658 217.409 533.658 217.409 533.658C217.409 533.658 214.856 533.658 213.579 533.658C212.302 530.147 215.497 527.274 217.409 526.955C223.155 525.997 224.112 531.366 224.112 533.658Z" fill="#C4C4C4"/>
<path d="M202.408 331.293C202.408 334.804 199.559 335.791 197.62 335.791C195.385 335.442 194.747 334.485 193.47 331.931C193.47 329.64 193.997 326.786 195.705 325.867C199.854 323.632 202.408 327.782 202.408 331.293Z" fill="#C4C4C4"/>
<path d="M182.937 337.357C182.937 340.869 180.088 341.855 178.149 341.855C176.234 340.23 178.149 342.784 176.873 340.23C176.873 337.938 176.873 337.357 178.469 335.442C180.296 333.249 182.937 333.846 182.937 337.357Z" fill="#C4C4C4"/>
<path d="M199.535 368.957C199.535 368.957 200.836 373.426 198.897 373.426C196.981 371.8 196.343 371.511 195.066 368.957C195.066 366.665 194.428 366.404 195.705 363.85C196.981 361.297 199.535 368.957 199.535 368.957Z" fill="#C4C4C4"/>
<path d="M217.409 209.682C210.2 205.662 202.727 194.68 202.727 194.68L222.836 193.084C222.836 193.084 228.634 194.355 232.411 194.68C236.509 195.034 242.944 194.68 242.944 194.68C242.944 194.68 249.858 198.578 254.754 199.468C259.047 200.248 265.926 199.468 265.926 199.468C265.926 199.468 258.62 208.312 252.201 211.278C246.006 214.141 241.788 214.04 234.965 214.151C227.403 214.274 224.014 213.366 217.409 209.682Z" fill="#D58A88" stroke="#EDB39C"/>
<path d="M214.218 200.745C209.333 199.006 202.408 194.68 202.408 194.68C202.408 194.68 212.169 197.638 218.686 198.83C222.415 199.512 224.516 199.52 228.262 200.107C230.752 200.497 232.456 200.496 234.965 200.745C239.926 201.237 247.534 201.703 252.52 201.703C259.501 201.703 265.607 199.787 265.607 199.787C265.607 199.787 259.228 202.49 255.074 203.299C250.869 204.117 244.221 204.894 244.221 204.894C244.221 204.894 238.569 205.172 234.965 204.894C231.062 204.594 228.911 204.052 225.07 203.299C220.797 202.461 218.319 202.206 214.218 200.745Z" fill="white"/>
<path d="M214.218 200.745C209.333 199.006 202.408 194.68 202.408 194.68C202.408 194.68 212.169 197.638 218.686 198.83C222.415 199.512 224.516 199.52 228.262 200.107C230.752 200.497 232.456 200.496 234.965 200.745C239.926 201.237 247.534 201.703 252.52 201.703C259.501 201.703 265.607 199.787 265.607 199.787C265.607 199.787 259.228 202.49 255.074 203.299C250.869 204.117 244.221 204.894 244.221 204.894C244.221 204.894 238.569 205.172 234.965 204.894C231.062 204.594 228.911 204.052 225.07 203.299C220.797 202.461 218.319 202.206 214.218 200.745Z" fill="url(#paint6_linear)"/>
<path d="M214.218 200.745C209.333 199.006 202.408 194.68 202.408 194.68C202.408 194.68 212.169 197.638 218.686 198.83C222.415 199.512 224.516 199.52 228.262 200.107C230.752 200.497 232.456 200.496 234.965 200.745C239.926 201.237 247.534 201.703 252.52 201.703C259.501 201.703 265.607 199.787 265.607 199.787C265.607 199.787 259.228 202.49 255.074 203.299C250.869 204.117 244.221 204.894 244.221 204.894C244.221 204.894 238.569 205.172 234.965 204.894C231.062 204.594 228.911 204.052 225.07 203.299C220.797 202.461 218.319 202.206 214.218 200.745Z" fill="url(#paint7_linear)"/>
<path d="M214.218 200.745C209.333 199.006 202.408 194.68 202.408 194.68C202.408 194.68 212.169 197.638 218.686 198.83C222.415 199.512 224.516 199.52 228.262 200.107C230.752 200.497 232.456 200.496 234.965 200.745C239.926 201.237 247.534 201.703 252.52 201.703C259.501 201.703 265.607 199.787 265.607 199.787C265.607 199.787 259.228 202.49 255.074 203.299C250.869 204.117 244.221 204.894 244.221 204.894C244.221 204.894 238.569 205.172 234.965 204.894C231.062 204.594 228.911 204.052 225.07 203.299C220.797 202.461 218.319 202.206 214.218 200.745Z" stroke="white" stroke-width="0.2"/>
<path d="M249.328 160.847C249.328 160.847 254.164 164.234 254.754 167.549C255.2 170.053 254.98 171.883 253.478 173.933M248.371 172.656C246.644 172.096 243.902 173.933 243.902 173.933L239.753 176.806C239.753 176.806 237.541 179.45 235.603 180.317C232.758 181.589 230.177 181.452 228.9 180.317C226.027 177.763 221.559 172.656 221.559 172.656M221.559 172.656C221.559 172.656 218.099 171.233 217.09 172.656M221.559 172.656C221.559 172.656 221.044 169.476 221.559 167.549C222.47 164.139 227.623 160.847 227.623 160.847M213.26 172.656C212.695 169.993 211.991 167.724 213.26 165.315C214.945 162.117 218.686 157.974 218.686 157.974" stroke="black" stroke-width="0.5"/>
<path d="M249.966 175.21C247.413 176.487 249.848 176.487 247.732 176.487C245.617 176.487 243.264 175.915 243.264 175.21C243.264 174.505 245.617 172.656 247.732 172.656C249.848 172.656 249.009 173.614 249.966 175.21Z" fill="url(#paint8_linear)"/>
<path d="M210.068 111.053C216.219 111.739 225.708 113.607 225.708 113.607C225.708 113.607 222.357 108.716 219.324 106.585C215.839 104.135 213.325 103.374 209.11 102.754C203.894 101.987 200.821 103.078 195.705 104.35C191.726 105.34 189.117 105.438 185.81 107.861C183.388 109.635 180.703 113.607 180.703 113.607C180.703 113.607 183.836 113.893 185.81 113.607C189.292 113.101 190.687 110.917 194.109 110.096C200.18 108.639 203.863 110.361 210.068 111.053Z" fill="#422826"/>
<path d="M209.749 124.14C214.309 124.604 220.601 128.608 220.601 128.608C220.601 128.608 215.541 131.486 211.983 132.439C209.786 133.027 208.512 133.45 206.238 133.396C203.122 133.322 201.3 132.677 198.577 131.162C197.096 130.338 195.066 128.608 195.066 128.608L201.131 125.097C201.131 125.097 206.38 123.796 209.749 124.14Z" fill="#F5F0ED"/>
<path d="M263.372 128.608C260.488 129.485 256.989 132.439 256.989 132.439L264.968 135.95L267.681 136.588L270.395 137.226H274.544L282.204 135.95V134.354L276.459 129.885C276.459 129.885 273.222 128.251 270.714 127.97C268.086 127.676 266.007 127.808 263.372 128.608Z" fill="#F5F0ED"/>
<path d="M209.749 124.14C214.309 124.604 220.601 128.608 220.601 128.608C220.601 128.608 215.541 131.486 211.983 132.439C209.786 133.027 208.512 133.45 206.238 133.396C203.122 133.322 201.3 132.677 198.577 131.162C197.096 130.338 195.066 128.608 195.066 128.608L201.131 125.097C201.131 125.097 206.38 123.796 209.749 124.14Z" stroke="black" stroke-width="0.1"/>
<path d="M263.372 128.608C260.488 129.485 256.989 132.439 256.989 132.439L264.968 135.95L267.681 136.588L270.395 137.226H274.544L282.204 135.95V134.354L276.459 129.885C276.459 129.885 273.222 128.251 270.714 127.97C268.086 127.676 266.007 127.808 263.372 128.608Z" stroke="black" stroke-width="0.1"/>
<path d="M212.621 127.97C212.621 131.143 210.225 133.396 206.876 133.396C203.527 133.396 200.492 131.143 200.492 127.97C200.173 123.821 203.846 123.821 207.195 123.821C211.345 123.821 212.621 124.797 212.621 127.97Z" fill="#647276"/>
<path d="M275.502 131.481C275.502 134.654 272.786 137.227 269.437 137.227C266.088 137.227 263.372 134.335 263.372 131.162C263.372 126.693 267.841 127.97 270.075 127.97C271.991 128.609 275.502 128.308 275.502 131.481Z" fill="#647276"/>
<circle cx="206.238" cy="127.97" r="1.91513" fill="#1E1E1E"/>
<circle cx="269.437" cy="131.8" r="1.91513" fill="black"/>
<path d="M44.0904 372.149L49.5166 341.507L41.8561 348.848C41.8561 348.848 41.2434 350.785 40.8986 352.04C38.8008 359.673 38.8725 364.251 38.3451 372.149C37.7554 380.98 37.3479 388.205 38.3451 394.811L40.8986 411.728L44.0904 428.007C44.0904 428.007 44.8211 435.84 46.644 440.455C47.5654 442.789 49.5166 446.201 49.5166 446.201V431.199C49.5166 424.592 50.3322 420.838 49.5166 414.282C48.5422 406.449 45.2209 402.624 44.0904 394.811C42.823 386.053 44.0904 372.149 44.0904 372.149Z" stroke="black" stroke-width="0.5"/>
<path d="M48.2397 476.523L49.8357 450.669L49.1973 447.796L46.6438 445.881V464.075C45.899 465.139 44.4095 467.139 44.4095 466.629C44.4095 466.118 43.7711 471.736 43.4519 474.608L46.6438 495.036L51.7508 517.699L57.177 532.381V521.529L48.2397 493.121V476.523Z" fill="black" fill-opacity="0.7"/>
<path d="M46.1438 445.881V463.917C45.7788 464.433 45.2787 465.114 44.8603 465.626C44.6983 465.824 44.5585 465.984 44.4491 466.098C44.4363 466.097 44.4233 466.096 44.41 466.096C44.263 466.095 44.1567 466.157 44.1008 466.2C44.0085 466.271 43.966 466.356 43.958 466.372L43.9573 466.374C43.9427 466.403 43.9338 466.427 43.9295 466.44C43.9086 466.5 43.8954 466.581 43.8887 466.622L43.888 466.626C43.8684 466.746 43.8413 466.942 43.8089 467.192C43.7436 467.695 43.6536 468.441 43.5538 469.291C43.3541 470.992 43.1146 473.116 42.955 474.553L42.9476 474.619L42.9579 474.685L46.1498 495.113L46.1524 495.13L46.156 495.146L51.263 517.809L51.2703 517.841L51.2818 517.872L56.708 532.555L57.677 532.381V521.529V521.452L57.6539 521.379L48.7397 493.044V476.539L50.3347 450.7L50.3391 450.63L50.3238 450.561L49.6854 447.688L49.6453 447.507L49.4973 447.396L46.9438 445.481L46.1438 444.881V445.881Z" stroke="black" stroke-opacity="0.7"/>
<path d="M460.95 333.208C460.95 333.208 453.414 369.673 443.394 391.619C429.989 420.985 420.094 467.586 420.094 467.586L415.306 466.309C415.306 466.309 416.162 447.855 418.498 436.306C422.038 418.8 426.956 409.514 433.819 393.215C449.14 356.828 454.566 325.867 454.566 325.867" stroke="black" stroke-opacity="0.5"/>
<path d="M414.029 502.058C414.15 513.683 415.625 531.743 415.625 531.743H417.54C417.54 531.743 417.778 517.308 418.817 503.973C419.856 490.639 421.051 468.863 421.051 468.863L414.667 466.948C414.667 466.948 413.889 488.569 414.029 502.058Z" fill="black" fill-opacity="0.5"/>
<defs>
<radialGradient id="paint0_radial" cx="0" cy="0" r="1" gradientUnits="userSpaceOnUse" gradientTransform="translate(237.518 211.278) rotate(83.9085) scale(162.426 137.688)">
<stop stop-color="#C5796A"/>
<stop offset="0.601909" stop-color="#B9B9B9" stop-opacity="0"/>
</radialGradient>
<radialGradient id="paint1_radial" cx="0" cy="0" r="1" gradientUnits="userSpaceOnUse" gradientTransform="translate(287.631 8.91308) rotate(-29.0238) scale(173.024 184.653)">
<stop offset="0.373765" stop-color="#854435"/>
<stop offset="0.677083" stop-color="#854435"/>
<stop offset="1"/>
</radialGradient>
<linearGradient id="paint2_linear" x1="106.97" y1="43.7046" x2="295.291" y2="193.404" gradientUnits="userSpaceOnUse">
<stop stop-color="#DBA393"/>
<stop offset="1" stop-color="#FFE9DF"/>
</linearGradient>
<linearGradient id="paint3_linear" x1="218.048" y1="172.018" x2="219.325" y2="176.806" gradientUnits="userSpaceOnUse">
<stop/>
<stop offset="1" stop-color="#C4C4C4" stop-opacity="0"/>
</linearGradient>
<linearGradient id="paint4_linear" x1="207.195" y1="163.081" x2="154.529" y2="182.551" gradientUnits="userSpaceOnUse">
<stop stop-color="white"/>
<stop offset="1" stop-color="#F2C3AF"/>
</linearGradient>
<radialGradient id="paint5_radial" cx="0" cy="0" r="1" gradientUnits="userSpaceOnUse" gradientTransform="translate(524.787 385.555) rotate(159.834) scale(324.052 571.105)">
<stop stop-color="white" stop-opacity="0"/>
<stop offset="0.0001" stop-color="#A38559"/>
<stop offset="1" stop-color="#5D4D36"/>
</radialGradient>
<linearGradient id="paint6_linear" x1="197.62" y1="191.489" x2="223.793" y2="202.022" gradientUnits="userSpaceOnUse">
<stop stop-color="#626262"/>
<stop offset="1" stop-color="white" stop-opacity="0"/>
</linearGradient>
<linearGradient id="paint7_linear" x1="278.693" y1="196.596" x2="246.136" y2="202.66" gradientUnits="userSpaceOnUse">
<stop offset="0.0462869" stop-color="white"/>
<stop offset="1" stop-opacity="0"/>
</linearGradient>
<linearGradient id="paint8_linear" x1="247.094" y1="172.656" x2="246.455" y2="176.487" gradientUnits="userSpaceOnUse">
<stop/>
<stop offset="1" stop-color="#C4C4C4" stop-opacity="0"/>
</linearGradient>
</defs>
</svg>
