<svg width="268" height="416" viewBox="0 0 268 416" fill="none" xmlns="http://www.w3.org/2000/svg">
<path d="M12.5 212.962C15.3662 213.565 24.5 238.462 24.5 238.462C24.5 238.462 27 99.882 32.5 95.9621C43.6727 87.9994 49.9372 85.1708 63 80.4621C89.3168 70.9758 134 69.9621 134 69.9621C134 69.9621 182 69.4151 189 71.9621C200 75.9646 233.5 112.962 240.5 130.462C242.357 135.104 242.5 246.462 242.5 246.462L253 225.962C253 225.962 268.737 174.866 267 141.462C266.043 123.061 246.781 88.4762 245 86.9621C225 69.9621 225 45.4621 225 45.4621L207.5 50.4621C207.5 50.4621 213.944 39.9768 207.5 36.4621C201.056 32.9474 204 35.4621 202 32.4621C200 29.4621 197 15.4621 197 15.4621L189 21.4621C189 21.4621 170.663 7.46214 165 7.46214H150.5C144.837 7.46214 144.911 2.45729 140.5 0.962141C134.767 -0.98093 131.039 0.552065 125 0.962141C112.659 1.80013 106.009 10.4269 94 7.46214C88.3192 6.05967 85.8102 8.15513 80 7.46214C65.5987 5.74447 63 26.4621 55 27.9621C50.9333 28.7246 49.9993 25.7348 45 24.4621C28.9346 20.3724 12.5 50.4621 12.5 50.4621L5 211.462C5 211.462 9.63375 212.359 12.5 212.962Z" fill="#251C1F"/>
<path d="M12.5 212.962C15.3662 213.565 24.5 238.462 24.5 238.462C24.5 238.462 27 99.882 32.5 95.9621C43.6727 87.9994 49.9372 85.1708 63 80.4621C89.3168 70.9758 134 69.9621 134 69.9621C134 69.9621 182 69.4151 189 71.9621C200 75.9646 233.5 112.962 240.5 130.462C242.357 135.104 242.5 246.462 242.5 246.462L253 225.962C253 225.962 268.737 174.866 267 141.462C266.043 123.061 246.781 88.4762 245 86.9621C225 69.9621 225 45.4621 225 45.4621L207.5 50.4621C207.5 50.4621 213.944 39.9768 207.5 36.4621C201.056 32.9474 204 35.4621 202 32.4621C200 29.4621 197 15.4621 197 15.4621L189 21.4621C189 21.4621 170.663 7.46214 165 7.46214H150.5C144.837 7.46214 144.911 2.45729 140.5 0.962141C134.767 -0.98093 131.039 0.552065 125 0.962141C112.659 1.80013 106.009 10.4269 94 7.46214C88.3192 6.05967 85.8102 8.15513 80 7.46214C65.5987 5.74447 63 26.4621 55 27.9621C50.9333 28.7246 49.9993 25.7348 45 24.4621C28.9346 20.3724 12.5 50.4621 12.5 50.4621L5 211.462C5 211.462 9.63375 212.359 12.5 212.962Z" fill="url(#paint0_radial)" fill-opacity="0.3"/>
<path d="M24 231.962C24 231.962 24.3786 164.657 28.5 120.462C29.393 110.886 29.25 97.9622 32.5 93.9622C36.5625 88.9622 49.5805 85.2203 63 80.4622C89.0533 71.2244 105.39 71.3068 133 69.9622C155.832 68.8502 182 66.4622 191.5 71.9622C201 77.4622 238.5 119.962 241.5 129.962C244.5 139.962 241.5 252.962 241.5 252.962L222 349.462L180.5 397.962C180.5 397.962 155.377 412.483 137.5 414.462C129.737 415.322 125.219 415.652 117.5 414.462C106.068 412.7 90 403.462 90 403.462L36 349.462L24 231.962Z" fill="#F2C3AF"/>
<path d="M24 231.962C24 231.962 24.3786 164.657 28.5 120.462C29.393 110.886 29.25 97.9622 32.5 93.9622C36.5625 88.9622 49.5805 85.2203 63 80.4622C89.0533 71.2244 105.39 71.3068 133 69.9622C155.832 68.8502 182 66.4622 191.5 71.9622C201 77.4622 238.5 119.962 241.5 129.962C244.5 139.962 241.5 252.962 241.5 252.962L222 349.462L180.5 397.962C180.5 397.962 155.377 412.483 137.5 414.462C129.737 415.322 125.219 415.652 117.5 414.462C106.068 412.7 90 403.462 90 403.462L36 349.462L24 231.962Z" fill="url(#paint1_linear)" fill-opacity="0.6"/>
<path d="M172.5 162.962C162.841 161.151 155.5 177.962 155.5 177.962C155.5 177.962 165.814 176.032 172.5 175.462C185.152 174.385 205 176.462 205 176.462C205 176.462 208.056 177.348 210 177.962C215.949 179.843 225 183.462 225 183.462C225 183.462 214.304 165.962 204.5 165.962C189 165.962 188.5 165.962 172.5 162.962Z" fill="#422826"/>
<path d="M109.5 273.962C106.5 274.962 107.5 273.462 104.5 274.462C101.186 274.462 100 271.567 100 270.462C100 269.358 101.686 269.462 105 269.462C108.314 269.462 108 271.962 109.5 273.962Z" fill="url(#paint2_linear)"/>
<path d="M13.8868 212.462L25 238.462L32 299.462H25.2075L13.8868 295.462L8.22642 274.462L2 264.462V248.462C2 248.462 -2.5 229.962 2 210.962C3.07833 206.409 13.8868 212.462 13.8868 212.462Z" fill="#854435"/>
<path d="M13.8868 212.462L25 238.462L32 299.462H25.2075L13.8868 295.462L8.22642 274.462L2 264.462V248.462C2 248.462 -2.5 229.962 2 210.962C3.07833 206.409 13.8868 212.462 13.8868 212.462Z" fill="url(#paint3_linear)" fill-opacity="0.3"/>
<path d="M252 228.962L242 247.462L231 310.462L235 317.462L247 310.462L263.5 261.462L260.5 247.462V228.962H252Z" fill="#F4C4BA" stroke="#F5B4A2"/>
<path d="M100.5 328.462C89.2071 322.165 77.5 304.962 77.5 304.962L109 302.462C109 302.462 118.083 304.452 124 304.962C130.42 305.515 140.5 304.962 140.5 304.962C140.5 304.962 151.33 311.068 159 312.462C165.724 313.684 176.5 312.462 176.5 312.462C176.5 312.462 165.055 326.316 155 330.962C145.296 335.446 138.688 335.288 128 335.462C116.155 335.655 110.847 334.232 100.5 328.462Z" fill="#D58A88" stroke="#EDB39C"/>
<path d="M95.5 314.462C87.849 311.738 77 304.962 77 304.962C77 304.962 92.2911 309.595 102.5 311.462C108.342 312.531 111.633 312.543 117.5 313.462C121.401 314.073 124.07 314.072 128 314.462C135.772 315.234 147.69 315.962 155.5 315.962C166.435 315.962 176 312.962 176 312.962C176 312.962 166.008 317.196 159.5 318.462C152.913 319.744 142.5 320.962 142.5 320.962C142.5 320.962 133.646 321.396 128 320.962C121.887 320.492 118.517 319.642 112.5 318.462C105.807 317.15 101.925 316.75 95.5 314.462Z" fill="white"/>
<path d="M95.5 314.462C87.849 311.738 77 304.962 77 304.962C77 304.962 92.2911 309.595 102.5 311.462C108.342 312.531 111.633 312.543 117.5 313.462C121.401 314.073 124.07 314.072 128 314.462C135.772 315.234 147.69 315.962 155.5 315.962C166.435 315.962 176 312.962 176 312.962C176 312.962 166.008 317.196 159.5 318.462C152.913 319.744 142.5 320.962 142.5 320.962C142.5 320.962 133.646 321.396 128 320.962C121.887 320.492 118.517 319.642 112.5 318.462C105.807 317.15 101.925 316.75 95.5 314.462Z" fill="url(#paint4_linear)"/>
<path d="M95.5 314.462C87.849 311.738 77 304.962 77 304.962C77 304.962 92.2911 309.595 102.5 311.462C108.342 312.531 111.633 312.543 117.5 313.462C121.401 314.073 124.07 314.072 128 314.462C135.772 315.234 147.69 315.962 155.5 315.962C166.435 315.962 176 312.962 176 312.962C176 312.962 166.008 317.196 159.5 318.462C152.913 319.744 142.5 320.962 142.5 320.962C142.5 320.962 133.646 321.396 128 320.962C121.887 320.492 118.517 319.642 112.5 318.462C105.807 317.15 101.925 316.75 95.5 314.462Z" fill="url(#paint5_linear)"/>
<path d="M95.5 314.462C87.849 311.738 77 304.962 77 304.962C77 304.962 92.2911 309.595 102.5 311.462C108.342 312.531 111.633 312.543 117.5 313.462C121.401 314.073 124.07 314.072 128 314.462C135.772 315.234 147.69 315.962 155.5 315.962C166.435 315.962 176 312.962 176 312.962C176 312.962 166.008 317.196 159.5 318.462C152.913 319.744 142.5 320.962 142.5 320.962C142.5 320.962 133.646 321.396 128 320.962C121.887 320.492 118.517 319.642 112.5 318.462C105.807 317.15 101.925 316.75 95.5 314.462Z" stroke="white" stroke-width="0.2"/>
<path d="M150.5 251.962C150.5 251.962 158.076 257.268 159 262.462C159.698 266.383 159.354 269.25 157 272.462M149 270.462C146.296 269.584 142 272.462 142 272.462L135.5 276.962C135.5 276.962 132.036 281.105 129 282.462C124.544 284.455 120.5 284.24 118.5 282.462C114 278.462 107 270.462 107 270.462M107 270.462C107 270.462 101.581 268.232 100 270.462M107 270.462C107 270.462 106.194 265.481 107 262.462C108.427 257.12 116.5 251.962 116.5 251.962M94 270.462C93.1152 266.29 92.0118 262.735 94 258.962C96.64 253.953 102.5 247.462 102.5 247.462" stroke="black" stroke-width="0.5"/>
<path d="M151.5 274.462C147.5 276.462 151.314 276.462 148 276.462C144.686 276.462 141 275.567 141 274.462C141 273.358 144.686 270.462 148 270.462C151.314 270.462 150 271.962 151.5 274.462Z" fill="url(#paint6_linear)"/>
<path d="M89 173.962C98.6347 175.037 113.5 177.962 113.5 177.962C113.5 177.962 108.25 170.301 103.5 166.962C98.0405 163.125 94.1023 161.933 87.5 160.962C79.3289 159.761 74.5149 161.469 66.5 163.462C60.2669 165.012 56.1812 165.166 51 168.962C47.2066 171.741 43 177.962 43 177.962C43 177.962 47.9082 178.411 51 177.962C56.4554 177.171 58.6396 173.748 64 172.462C73.5108 170.181 79.2796 172.878 89 173.962Z" fill="#422826"/>
<path d="M88.5 194.462C95.6427 195.19 105.5 201.462 105.5 201.462C105.5 201.462 97.573 205.97 92 207.462C88.5581 208.384 86.5622 209.047 83 208.962C78.1198 208.847 75.2658 207.835 71 205.462C68.6791 204.171 65.5 201.462 65.5 201.462L75 195.962C75 195.962 83.2228 193.924 88.5 194.462Z" fill="#F5F0ED"/>
<path d="M172.5 201.462C167.981 202.835 162.5 207.462 162.5 207.462L175 212.962L179.25 213.962L183.5 214.962H190L202 212.962V210.462L193 203.462C193 203.462 187.929 200.902 184 200.462C179.884 200.002 176.627 200.208 172.5 201.462Z" fill="#F5F0ED"/>
<path d="M88.5 194.462C95.6427 195.19 105.5 201.462 105.5 201.462C105.5 201.462 97.573 205.97 92 207.462C88.5581 208.384 86.5622 209.047 83 208.962C78.1198 208.847 75.2658 207.835 71 205.462C68.6791 204.171 65.5 201.462 65.5 201.462L75 195.962C75 195.962 83.2228 193.924 88.5 194.462Z" stroke="black" stroke-width="0.1"/>
<path d="M172.5 201.462C167.981 202.835 162.5 207.462 162.5 207.462L175 212.962L179.25 213.962L183.5 214.962H190L202 212.962V210.462L193 203.462C193 203.462 187.929 200.902 184 200.462C179.884 200.002 176.627 200.208 172.5 201.462Z" stroke="black" stroke-width="0.1"/>
<path d="M93 200.462C93 205.433 89.2467 208.962 84 208.962C78.7533 208.962 74 205.433 74 200.462C73.5 193.962 79.2533 193.962 84.5 193.962C91 193.962 93 195.492 93 200.462Z" fill="#647276"/>
<path d="M191.5 205.962C191.5 210.933 187.247 214.962 182 214.962C176.753 214.962 172.5 210.433 172.5 205.462C172.5 198.462 179.5 200.462 183 200.462C186 201.462 191.5 200.992 191.5 205.962Z" fill="#647276"/>
<circle cx="83" cy="200.462" r="3" fill="#1E1E1E"/>
<circle cx="182" cy="206.462" r="3" fill="black"/>
<defs>
<radialGradient id="paint0_radial" cx="0" cy="0" r="1" gradientUnits="userSpaceOnUse" gradientTransform="translate(210.5 13.9621) rotate(-29.0238) scale(271.037 289.254)">
<stop offset="0.373765" stop-color="#854435"/>
<stop offset="0.677083" stop-color="#854435"/>
<stop offset="1"/>
</radialGradient>
<linearGradient id="paint1_linear" x1="-72.5" y1="68.4622" x2="222.5" y2="302.962" gradientUnits="userSpaceOnUse">
<stop stop-color="#A66E5E"/>
<stop offset="1" stop-color="#F6D7C9"/>
</linearGradient>
<linearGradient id="paint2_linear" x1="101.5" y1="269.462" x2="103.5" y2="276.962" gradientUnits="userSpaceOnUse">
<stop/>
<stop offset="1" stop-color="#C4C4C4" stop-opacity="0"/>
</linearGradient>
<linearGradient id="paint3_linear" x1="84.5" y1="255.462" x2="2" y2="285.962" gradientUnits="userSpaceOnUse">
<stop stop-color="white"/>
<stop offset="1" stop-color="#F2C3AF"/>
</linearGradient>
<linearGradient id="paint4_linear" x1="69.5" y1="299.962" x2="110.5" y2="316.462" gradientUnits="userSpaceOnUse">
<stop stop-color="#626262"/>
<stop offset="1" stop-color="white" stop-opacity="0"/>
</linearGradient>
<linearGradient id="paint5_linear" x1="196.5" y1="307.962" x2="145.5" y2="317.462" gradientUnits="userSpaceOnUse">
<stop offset="0.0462869" stop-color="white"/>
<stop offset="1" stop-opacity="0"/>
</linearGradient>
<linearGradient id="paint6_linear" x1="147" y1="270.462" x2="146" y2="276.462" gradientUnits="userSpaceOnUse">
<stop/>
<stop offset="1" stop-color="#C4C4C4" stop-opacity="0"/>
</linearGradient>
</defs>
</svg>
